<?xml version="1.0" encoding="UTF-8"?>
<svg width="24px" height="24px" viewBox="0 0 24 24" version="1.1" xmlns="http://www.w3.org/2000/svg" xmlns:xlink="http://www.w3.org/1999/xlink">
    <!-- Generator: Sketch 54.1 (76490) - https://sketchapp.com -->
    <title>Icons/Outlined/Exit</title>
    <desc>Created with Sketch.</desc>
    <g id="Icons/Outlined/Exit" stroke="none" stroke-width="1" fill="none" fill-rule="evenodd" fill-opacity="0.9">
        <path d="M17.2020264,8 L16.0020264,8 L16.0020264,3.2 L16,2 L16.2030698,2 C16.7528961,2 17.2020264,2.44583866 17.2020264,2.99580851 L17.2020264,8 Z M17.2020264,16 L17.2020264,21.0041915 C17.2020264,21.5510798 16.7561877,22 16.2062179,22 L4.99580851,22 C4.44892021,22 4,21.5541613 4,21.0041915 L4,2.99580851 C4,2.44892021 4.44724809,2 4.99895656,2 L16,2 L16,2.6 L16,3.2 L5.2,3.2 L5.2,20.8 L16.0020264,20.8 L16.0020264,16 L17.2020264,16 Z M20.2384836,12.6355279 L11,12.6355279 L11,11.4355278 L20.2384715,11.4355278 L18.1514718,9.34852817 L19,8.5 L21.8284271,11.3284271 C22.2189514,11.7189514 22.2189514,12.3521164 21.8284271,12.7426407 L19,15.5710678 L18.1514718,14.7225396 L20.2384836,12.6355279 Z" id="形状结合" fill="#000000"></path>
    </g>
</svg>