<?xml version="1.0" encoding="UTF-8"?>
<svg width="32px" height="24px" viewBox="0 0 32 24" version="1.1" xmlns="http://www.w3.org/2000/svg" xmlns:xlink="http://www.w3.org/1999/xlink">
    <!-- Generator: Sketch 53.2 (72643) - https://sketchapp.com -->
    <title>画板 copy 7</title>
    <desc>Created with Sketch.</desc>
    <g id="画板-copy-7" stroke="none" stroke-width="1" fill="none" fill-rule="evenodd">
        <g id="分组-copy">
            <rect id="Rectangle" fill="#E3E3E3" x="0" y="0" width="32" height="24" rx="1"></rect>
            <g id="分组" transform="translate(5.500000, 6.000000)" fill="#000000" fill-opacity="0.5">
                <polygon id="Rectangle" transform="translate(17.500000, 6.500000) scale(-1, 1) translate(-17.500000, -6.500000) " points="15.5 5 19.5 5 17.5 8"></polygon>
            </g>
        </g>
        <path d="M12.16,6.56 L13.63,6.56 L13.63,17.858 L12.16,17.858 L12.16,6.56 Z M16.346,6 L17.816,6 L17.816,18.866 L16.346,18.866 L16.346,6 Z M8.002,6.056 L9.472,6.056 L9.472,11.544 C9.444,14.946 8.66,17.424 7.12,18.978 L6,17.984 C7.316,16.654 7.974,14.512 8.002,11.544 L8.002,6.056 Z" id="川-copy" fill="#000000" fill-rule="nonzero" opacity="0.5"></path>
    </g>
</svg>