<?xml version="1.0" encoding="UTF-8"?>
<svg width="24px" height="24px" viewBox="0 0 24 24" version="1.1" xmlns="http://www.w3.org/2000/svg" xmlns:xlink="http://www.w3.org/1999/xlink">
    <!-- Generator: Sketch 53.2 (72643) - https://sketchapp.com -->
    <title>画板 copy 8</title>
    <desc>Created with Sketch.</desc>
    <g id="画板-copy-8" stroke="none" stroke-width="1" fill="none" fill-rule="evenodd">
        <g id="icons_filled_transfer-text_en" transform="translate(3.000000, 3.000000)" fill="#000000" fill-rule="nonzero">
            <path d="M1,0 L17,0 C17.5522847,0 18,0.4477153 18,1 L18,17 C18,17.5522847 17.5522847,18 17,18 L1,18 C0.4477153,18 0,17.5522847 0,17 L0,1 C0,0.4477153 0.4477153,0 1,0 Z M3,5 L3,13.12175 L9.02875,13.12175 L9.02875,12.063875 L4.239875,12.063875 L4.239875,9.48175 L8.562375,9.48175 L8.562375,8.423875 L4.239875,8.423875 L4.239875,6.057875 L8.835375,6.057875 L8.835375,5 L3,5 Z M13.157875,7.081625 C12.793875,7.081625 12.464,7.149875 12.16825,7.309125 C11.8725,7.457 11.610875,7.673125 11.383375,7.968875 L11.383375,7.240875 L10.177625,7.240875 L10.177625,13.12175 L11.383375,13.12175 L11.383375,9.584125 C11.428875,9.106375 11.5995,8.731 11.8725,8.458 C12.12275,8.20775 12.429875,8.094 12.771125,8.094 C13.681125,8.094 14.1475,8.5945 14.1475,9.5955 L14.1475,13.12175 L15.35325,13.12175 L15.35325,9.493125 C15.35325,7.877875 14.613875,7.081625 13.157875,7.081625 Z" id="合并形状"></path>
        </g>
    </g>
</svg>