<?xml version="1.0" encoding="UTF-8"?>
<svg width="24px" height="24px" viewBox="0 0 24 24" version="1.1" xmlns="http://www.w3.org/2000/svg" xmlns:xlink="http://www.w3.org/1999/xlink">
    <!-- Generator: Sketch 56.3 (81716) - https://sketch.com -->
    <title>Icons_Outlined_table</title>
    <desc>Created with Sketch.</desc>
    <g id="Icons_Outlined_table" stroke="none" stroke-width="1" fill="none" fill-rule="evenodd" fill-opacity="0.9">
        <path d="M6,2 L18,2 C19.1045695,2 20,2.8954305 20,4 L20,20 C20,21.1045695 19.1045695,22 18,22 L6,22 C4.8954305,22 4,21.1045695 4,20 L4,4 C4,2.8954305 4.8954305,2 6,2 Z M6,3.2 C5.5581722,3.2 5.2,3.5581722 5.2,4 L5.2,20 C5.2,20.4418278 5.5581722,20.8 6,20.8 L18,20.8 C18.4418278,20.8 18.8,20.4418278 18.8,20 L18.8,4 C18.8,3.5581722 18.4418278,3.2 18,3.2 L6,3.2 Z M7.5,18 C6.94771525,18 6.5,17.5522847 6.5,17 C6.5,16.4477153 6.94771525,16 7.5,16 C8.05228475,16 8.5,16.4477153 8.5,17 C8.5,17.5522847 8.05228475,18 7.5,18 Z M10.1,16.4 L16.9,16.4 C17.2313708,16.4 17.5,16.6686292 17.5,17 C17.5,17.3313708 17.2313708,17.6 16.9,17.6 L10.1,17.6 C9.76862915,17.6 9.5,17.3313708 9.5,17 C9.5,16.6686292 9.76862915,16.4 10.1,16.4 Z M7.5,13 C6.94771525,13 6.5,12.5522847 6.5,12 C6.5,11.4477153 6.94771525,11 7.5,11 C8.05228475,11 8.5,11.4477153 8.5,12 C8.5,12.5522847 8.05228475,13 7.5,13 Z M10.1,11.4 L16.9,11.4 C17.2313708,11.4 17.5,11.6686292 17.5,12 C17.5,12.3313708 17.2313708,12.6 16.9,12.6 L10.1,12.6 C9.76862915,12.6 9.5,12.3313708 9.5,12 C9.5,11.6686292 9.76862915,11.4 10.1,11.4 Z M7.5,8 C6.94771525,8 6.5,7.55228475 6.5,7 C6.5,6.44771525 6.94771525,6 7.5,6 C8.05228475,6 8.5,6.44771525 8.5,7 C8.5,7.55228475 8.05228475,8 7.5,8 Z M10.1,6.4 L16.9,6.4 C17.2313708,6.4 17.5,6.66862915 17.5,7 C17.5,7.33137085 17.2313708,7.6 16.9,7.6 L10.1,7.6 C9.76862915,7.6 9.5,7.33137085 9.5,7 C9.5,6.66862915 9.76862915,6.4 10.1,6.4 Z" id="形状结合" fill="#000000"></path>
    </g>
</svg>