<?xml version="1.0" encoding="UTF-8"?>
<svg width="32px" height="24px" viewBox="0 0 32 24" version="1.1" xmlns="http://www.w3.org/2000/svg" xmlns:xlink="http://www.w3.org/1999/xlink">
    <!-- Generator: Sketch 53.2 (72643) - https://sketchapp.com -->
    <title>画板 copy 5</title>
    <desc>Created with Sketch.</desc>
    <g id="画板-copy-5" stroke="none" stroke-width="1" fill="none" fill-rule="evenodd">
        <g id="分组-copy">
            <rect id="Rectangle" fill="#E3E3E3" x="0" y="0" width="32" height="24" rx="1"></rect>
            <g id="分组" transform="translate(5.500000, 6.000000)" fill="#000000" fill-opacity="0.5">
                <polygon id="Rectangle" transform="translate(17.500000, 6.500000) scale(-1, 1) translate(-17.500000, -6.500000) " points="15.5 5 19.5 5 17.5 8"></polygon>
            </g>
        </g>
        <path d="M9.50055866,9.00971922 L10.4882682,9.00971922 C10.3139665,8.71490281 10.1396648,8.43412527 9.93631285,8.18142549 L10.8659218,7.88660907 C11.098324,8.20950324 11.301676,8.58855292 11.4905028,9.00971922 L11.9553073,9.00971922 L11.9553073,7.7462203 L13.0882682,7.7462203 L13.0882682,9.00971922 L13.5385475,9.00971922 C13.8,8.67278618 14.0324022,8.26565875 14.2357542,7.78833693 L15.2089385,8.05507559 C15.0346369,8.39200864 14.8458101,8.71490281 14.627933,9.00971922 L15.673743,9.00971922 L15.673743,9.89416847 L13.0882682,9.89416847 L13.0882682,11.4103672 L11.9553073,11.4103672 L11.9553073,10.399568 C11.4178771,10.8488121 10.7351955,11.2278618 9.90726257,11.5507559 L9.38435754,10.7224622 C10.2558659,10.4838013 10.9385475,10.2030238 11.4469274,9.89416847 L9.50055866,9.89416847 L9.50055866,9.00971922 Z M6,13.4179266 L19,13.4179266 L19,14.5550756 L10.3284916,14.5550756 L9.97988827,15.2991361 L17.1988827,15.2991361 C17.0681564,16.8153348 16.8502793,17.7278618 16.5597765,18.0367171 C16.2402235,18.3455724 15.5865922,18.5 14.6134078,18.5 C14.1776536,18.4859611 13.6547486,18.4578834 13.073743,18.4298056 L12.7541899,17.2645788 C13.4223464,17.3347732 14.0469274,17.3768898 14.6134078,17.3768898 C14.9910615,17.3768898 15.252514,17.3207343 15.3977654,17.2365011 C15.5430168,17.1522678 15.6446927,16.8714903 15.7173184,16.3660907 L8.07709497,16.3660907 L8.87597765,14.5550756 L6,14.5550756 L6,13.4179266 Z M7.7575419,6.37041037 L11.2435754,6.37041037 C11.3888268,6.08963283 11.4905028,5.79481641 11.5631285,5.5 L12.9284916,5.66846652 C12.8413408,5.92116631 12.7396648,6.14578834 12.6089385,6.37041037 L17.3877095,6.37041037 L17.3877095,12.8282937 L7.7575419,12.8282937 L7.7575419,6.37041037 Z M16.1240223,11.775378 L16.1240223,7.42332613 L9.02122905,7.42332613 L9.02122905,11.775378 L16.1240223,11.775378 Z M13.8290503,10.0064795 C14.4972067,10.2030238 15.1217877,10.4276458 15.7027933,10.6943844 L15.1798883,11.4665227 C14.5843575,11.1295896 13.9743017,10.862851 13.3642458,10.6663067 L13.8290503,10.0064795 Z" id="粤" fill-opacity="0.5" fill="#000000" fill-rule="nonzero"></path>
    </g>
</svg>