<?xml version="1.0" encoding="UTF-8"?>
<svg width="24px" height="24px" viewBox="0 0 24 24" version="1.1" xmlns="http://www.w3.org/2000/svg" xmlns:xlink="http://www.w3.org/1999/xlink">
    <!-- Generator: Sketch 56.2 (81672) - https://sketch.com -->
    <title>ic_filled_cloudvedio</title>
    <desc>Created with Sketch.</desc>
    <g id="页面-1" stroke="none" stroke-width="1" fill="none" fill-rule="evenodd">
        <g id="ic_filled_cloudvedio" fill="#000000">
            <path d="M17.3736279,9.34712496 L11.6734733,15.0472796 L8.97361103,12.3474173 L7.91295086,13.4080775 L10.9856512,16.4807779 C11.3761755,16.8713022 12.0093405,16.8713022 12.3998648,16.4807779 L18.0467616,10.8338811 C18.0681699,10.8335164 18.0896201,10.8333333 18.1111111,10.8333333 C20.2588851,10.8333333 22,12.6615039 22,14.9166667 C22,17.1718294 20.2588851,19 18.1111111,19 L6.44444444,19 C3.98984556,19 2,16.9106622 2,14.3333333 C2,11.7560045 3.98984556,9.66666667 6.44444444,9.66666667 C6.48150422,9.66666667 6.51845806,9.66714294 6.5553007,9.66808997 C7.06952159,7.00476717 9.3117901,5 12,5 C14.5790964,5 16.7477179,6.84532449 17.3736279,9.34712496 Z" id="形状结合"></path>
        </g>
    </g>
</svg>