<?xml version="1.0" encoding="UTF-8"?>
<svg width="24px" height="24px" viewBox="0 0 24 24" version="1.1" xmlns="http://www.w3.org/2000/svg" xmlns:xlink="http://www.w3.org/1999/xlink">
    <!-- Generator: Sketch 53 (72520) - https://sketchapp.com -->
    <title>icons_outlined_display_mobile</title>
    <desc>Created with Sketch.</desc>
    <g id="icons_outlined_display_mobile" stroke="none" stroke-width="1" fill="none" fill-rule="evenodd">
        <g id="common_icons_tv&amp;display" fill="#000000" fill-rule="nonzero">
            <path d="M22,10 L23,10 C23.5522847,10 24,10.4477153 24,11 L24,21 C24,21.5522847 23.5522847,22 23,22 L17,22 C16.4477153,22 16,21.5522847 16,21 L16,19 L3,19 C2.44771525,19 2,18.5522847 2,18 L2,5 C2,4.44771525 2.44771525,4 3,4 L21,4 C21.5522847,4 22,4.44771525 22,5 L22,10 Z M20.8,10 L20.8,5.2 L3.2,5.2 L3.2,17.8 L16,17.8 L16,11 C16,10.4477153 16.4477153,10 17,10 L20.8,10 Z M8,20.8999993 C8,20.5686284 8.26586056,20.2999992 8.59681606,20.2999992 L14.4031839,20.2999992 C14.7327963,20.2999992 15,20.5783196 15,20.8999993 L15,21.4999993 L8,21.4999993 L8,20.8999993 Z M17.2,11.2 L17.2,20.8 L22.8,20.8 L22.8,11.2 L17.2,11.2 Z" id="Combined-Shape"></path>
        </g>
    </g>
</svg>