<?xml version="1.0" encoding="UTF-8"?>
<svg width="32px" height="24px" viewBox="0 0 32 24" version="1.1" xmlns="http://www.w3.org/2000/svg" xmlns:xlink="http://www.w3.org/1999/xlink">
    <!-- Generator: Sketch 53.2 (72643) - https://sketchapp.com -->
    <title>画板</title>
    <desc>Created with Sketch.</desc>
    <g id="画板" stroke="none" stroke-width="1" fill="none" fill-rule="evenodd">
        <g id="分组-copy">
            <rect id="Rectangle" fill="#E3E3E3" x="0" y="0" width="32" height="24" rx="1"></rect>
            <g id="分组" transform="translate(5.500000, 6.000000)" fill="#000000" fill-opacity="0.5">
                <path d="M4.714,2.744 L1.032,2.744 L1.032,1.498 L3.832,1.498 C3.636,1.078 3.412,0.686 3.188,0.35 L4.588,0.126 C4.812,0.532 5.036,0.994 5.26,1.498 L7.948,1.498 C8.256,1.022 8.536,0.518 8.774,1.56319402e-13 L10.048,0.448 C9.852,0.826 9.628,1.176 9.404,1.498 L12.372,1.498 L12.372,2.744 L8.676,2.744 L8.676,5.166 L10.468,5.166 L9.53,4.676 C10.006,4.102 10.384,3.528 10.664,2.94 L11.728,3.444 C11.448,4.032 11.07,4.606 10.622,5.166 L12.904,5.166 L12.904,6.412 L0.5,6.412 L0.5,5.166 L2.74,5.166 C2.46,4.48 2.166,3.878 1.83,3.346 L2.992,2.968 C3.328,3.528 3.636,4.116 3.902,4.746 L2.936,5.166 L4.714,5.166 L4.714,2.744 Z M7.402,2.744 L5.988,2.744 L5.988,5.166 L7.402,5.166 L7.402,2.744 Z M11.126,7.182 L11.126,13.006 L9.852,13.006 L9.852,12.404 L3.524,12.404 L3.524,13.006 L2.25,13.006 L2.25,7.182 L11.126,7.182 Z M3.524,11.298 L9.852,11.298 L9.852,10.332 L3.524,10.332 L3.524,11.298 Z M3.524,9.282 L9.852,9.282 L9.852,8.274 L3.524,8.274 L3.524,9.282 Z" id="普" fill-rule="nonzero"></path>
                <polygon id="Rectangle" transform="translate(17.500000, 6.500000) scale(-1, 1) translate(-17.500000, -6.500000) " points="15.5 5 19.5 5 17.5 8"></polygon>
            </g>
        </g>
    </g>
</svg>