<?xml version="1.0" encoding="UTF-8"?>
<svg width="24px" height="24px" viewBox="0 0 24 24" version="1.1" xmlns="http://www.w3.org/2000/svg" xmlns:xlink="http://www.w3.org/1999/xlink">
    <!-- Generator: Sketch 55.2 (78181) - https://sketchapp.com -->
    <title>noeffects_icon</title>
    <desc>Created with Sketch.</desc>
    <g id="noeffects_icon" stroke="none" stroke-width="1" fill="none" fill-rule="evenodd">
        <g id="Group" transform="translate(2.000000, 2.000000)" fill="#000000" fill-rule="nonzero">
            <path d="M3.721253,4.41978113 C2.40163905,5.90351183 1.6,7.8581395 1.6,10 C1.6,14.6391919 5.3608081,18.4 10,18.4 C12.1418605,18.4 14.0964882,17.598361 15.5802189,16.278747 L3.721253,4.41978113 Z M4.58045869,3.58193055 L16.4180694,15.4195413 C17.6545703,13.9567043 18.4,12.0654043 18.4,10 C18.4,5.3608081 14.6391919,1.6 10,1.6 C7.93459565,1.6 6.04329574,2.34542966 4.58045869,3.58193055 Z M10,19.6 C4.6980664,19.6 0.4,15.3019336 0.4,10 C0.4,4.6980664 4.6980664,0.4 10,0.4 C15.3019336,0.4 19.6,4.6980664 19.6,10 C19.6,15.3019336 15.3019336,19.6 10,19.6 Z" id="形状结合"></path>
        </g>
    </g>
</svg>