<?xml version="1.0" encoding="UTF-8"?>
<svg width="24px" height="24px" viewBox="0 0 24 24" version="1.1" xmlns="http://www.w3.org/2000/svg" xmlns:xlink="http://www.w3.org/1999/xlink">
    <!-- Generator: Sketch 53 (72520) - https://sketchapp.com -->
    <title>icons_outlined_imac_lock</title>
    <desc>Created with Sketch.</desc>
    <g id="icons_outlined_imac_lock" stroke="none" stroke-width="1" fill="none" fill-rule="evenodd">
        <g id="Group-2" transform="translate(2.000000, 4.000000)" fill="#000000" fill-rule="nonzero">
            <path d="M1.2,11 L14,11 L14,10.7 C14,8.9326888 15.3431458,7.5 17,7.5 C17.6753636,7.5 18.2986037,7.73804469 18.8,8.13976564 L18.8,1.2 L1.2,1.2 L1.2,11 Z M1.2,12.2 L1.2,13.8 L12,13.8 L12,12.2 L1.2,12.2 Z M18.8,11 L18.8,10.7 C18.8,9.5787381 17.976183,8.7 17,8.7 C16.023817,8.7 15.2,9.5787381 15.2,10.7 L15.2,11 L18.8,11 Z M12,17.5 L6.69668101,17.5 C6.64226093,17.5 6.58820584,17.4911158 6.5366485,17.4736978 C6.27503244,17.3853143 6.13459971,17.1015836 6.22298322,16.8399675 L6.84459181,15 L1,15 C0.44771525,15 -1.13546402e-15,14.5522847 -2.22044605e-16,14 L-2.46519033e-32,1 C-6.76353751e-17,0.44771525 0.44771525,1.01453063e-16 1,0 L19,0 C19.5522847,-1.01453063e-16 20,0.44771525 20,1 L20,11 L21.0046024,11 C21.5543453,11 22,11.4466987 22,11.9959421 L22,17.5040579 C22,18.0541015 21.5443356,18.5 21.0046024,18.5 L12.9953976,18.5 C12.4456547,18.5 12,18.0533013 12,17.5040579 L12,17.5 Z M12,14.9999878 L8.11122629,14.9999878 L7.67203442,16.3 L12,16.3 L12,14.9999878 Z M13.2,17.3 L20.8,17.3 L20.8,12.2 L13.2,12.2 L13.2,17.3 Z" id="Combined-Shape"></path>
        </g>
    </g>
</svg>