<?xml version="1.0" encoding="UTF-8"?>
<svg width="24px" height="24px" viewBox="0 0 24 24" version="1.1" xmlns="http://www.w3.org/2000/svg" xmlns:xlink="http://www.w3.org/1999/xlink">
    <!-- Generator: Sketch 55.2 (78181) - https://sketchapp.com -->
    <title>画板</title>
    <desc>Created with Sketch.</desc>
    <g id="画板" stroke="none" stroke-width="1" fill="none" fill-rule="evenodd">
        <g id="3.Icons/Outlined/pay_transfer" fill="#000000">
            <g id="图标颜色" transform="translate(3.000000, 5.000000)">
                <path d="M4.53018187,4 L17,4 L17,5.5 L1.49890739,5.5 C1.22276502,5.5 0.998907394,5.27614237 0.998907394,5 C0.998907394,4.85596341 1.06102322,4.71892351 1.1693431,4.62398487 L6.1020836,0.300607868 C6.26821754,0.1549972 6.52093647,0.171634596 6.66654714,0.337768532 C6.78682014,0.474993547 6.79897995,0.676220674 6.69610634,0.82693006 L4.53018187,4 Z M13.4687255,10 L0.998907394,10 L0.998907394,8.5 L14.9989074,8.5 L16.5,8.5 C16.7761424,8.5 17,8.72385763 17,9 C17,9.14403659 16.9378842,9.28107649 16.8295643,9.37601513 L11.8968238,13.6993921 C11.7306899,13.8450028 11.4779709,13.8283654 11.3323603,13.6622315 C11.2120873,13.5250065 11.1999274,13.3237793 11.3028011,13.1730699 L13.4687255,10 Z"></path>
            </g>
        </g>
    </g>
</svg>