<?xml version="1.0" encoding="UTF-8"?>
<svg width="24px" height="24px" viewBox="0 0 24 24" version="1.1" xmlns="http://www.w3.org/2000/svg" xmlns:xlink="http://www.w3.org/1999/xlink">
    <!-- Generator: Sketch 53 (72520) - https://sketchapp.com -->
    <title>icons_outlined_wifi</title>
    <desc>Created with Sketch.</desc>
    <g id="icons_outlined_wifi" stroke="none" stroke-width="1" fill="none" fill-rule="evenodd">
        <path d="M10.5857864,16.5857864 C10.9477153,16.2238576 11.4477153,16 12,16 C12.5522847,16 13.0522847,16.2238576 13.4142136,16.5857864 L12,18 L10.5857864,16.5857864 Z M14.6870058,15.3129942 C13.999341,14.6253295 13.049341,14.2 12,14.2 C10.950659,14.2 10.000659,14.6253295 9.31299423,15.3129942 L8.46446609,14.4644661 C9.36928813,13.5596441 10.6192881,13 12,13 C13.3807119,13 14.6307119,13.5596441 15.5355339,14.4644661 L14.6870058,15.3129942 Z M16.8083261,13.1916739 C15.5777681,11.9611159 13.8777681,11.2 12,11.2 C10.1222319,11.2 8.42223185,11.9611159 7.19167389,13.1916739 L6.34314575,12.3431458 C7.790861,10.8954305 9.790861,10 12,10 C14.209139,10 16.209139,10.8954305 17.6568542,12.3431458 L16.8083261,13.1916739 Z M18.9296465,11.0703535 C17.1561953,9.29690236 14.7061953,8.2 12,8.2 C9.29380473,8.2 6.84380473,9.29690236 5.07035354,11.0703535 L4.22182541,10.2218254 C6.21243388,8.23121694 8.96243388,7 12,7 C15.0375661,7 17.7875661,8.23121694 19.7781746,10.2218254 L18.9296465,11.0703535 Z" id="Combined-Shape" fill="#000000"></path>
    </g>
</svg>