<?xml version="1.0" encoding="UTF-8"?>
<svg width="24px" height="24px" viewBox="0 0 24 24" version="1.1" xmlns="http://www.w3.org/2000/svg" xmlns:xlink="http://www.w3.org/1999/xlink">
    <!-- Generator: Sketch 56.2 (81672) - https://sketch.com -->
    <title>icons_Filled_Othersize</title>
    <desc>Created with Sketch.</desc>
    <g id="icons_Filled_Othersize" stroke="none" stroke-width="1" fill="none" fill-rule="evenodd">
        <path d="M5,4.5 C4.72385763,4.5 4.5,4.72385763 4.5,5 L4.5,8.75 L3,8.75 L3,4 C3,3.44771525 3.44771525,3 4,3 L8.75,3 L8.75,4.5 L5,4.5 Z M5,19.5 L8.75,19.5 L8.75,21 L4,21 C3.44771525,21 3,20.5522847 3,20 L3,15.25 L4.5,15.25 L4.5,19 C4.5,19.2761424 4.72385763,19.5 5,19.5 Z M19,4.5 L15.25,4.5 L15.25,3 L20,3 C20.5522847,3 21,3.44771525 21,4 L21,8.75 L19.5,8.75 L19.5,5 C19.5,4.72385763 19.2761424,4.5 19,4.5 Z M19,19.5 C19.2761424,19.5 19.5,19.2761424 19.5,19 L19.5,15.25 L21,15.25 L21,20 C21,20.5522847 20.5522847,21 20,21 L15.25,21 L15.25,19.5 L19,19.5 Z M8,7 L16,7 C16.5522847,7 17,7.44771525 17,8 L17,16 C17,16.5522847 16.5522847,17 16,17 L8,17 C7.44771525,17 7,16.5522847 7,16 L7,8 C7,7.44771525 7.44771525,7 8,7 Z" id="形状结合" fill="#FFFFFF" fill-rule="nonzero"></path>
    </g>
</svg>