<?xml version="1.0" encoding="UTF-8"?>
<svg width="20px" height="19px" viewBox="0 0 20 19" version="1.1" xmlns="http://www.w3.org/2000/svg" xmlns:xlink="http://www.w3.org/1999/xlink">
    <!-- Generator: Sketch 56.3 (81716) - https://sketch.com -->
    <title>WeChat game</title>
    <desc>Created with Sketch.</desc>
    <g id="我-游戏相册" stroke="none" stroke-width="1" fill="none" fill-rule="evenodd">
        <g id="vedio-preview-9:16" transform="translate(-26.000000, -735.000000)">
            <g id="action-sheet">
                <g id="WeChat-game" transform="translate(0.000000, 713.000000)">
                    <g transform="translate(26.000000, 22.000000)">
                        <path d="M5.81246677,9.36347473 C6.11808975,7.55227357 7.55032458,6.1241691 9.36347473,5.82451505 L9.36347473,0.57628364 C9.36347473,0.257974741 9.10549767,-3.55271368e-15 8.78726995,-3.55271368e-15 L8.65155889,-3.55271368e-15 C8.49878941,-3.55271368e-15 8.35223828,0.060754312 8.24417362,0.168817998 L0.168735482,8.24418367 C0.0606708256,8.35216332 -7.42517159e-13,8.49879717 -7.42517159e-13,8.65156528 L-7.42517159e-13,8.78727512 C-7.42517159e-13,9.10549999 0.257977056,9.36347473 0.57620478,9.36347473 L5.81246677,9.36347473 Z" id="Fill-23" fill="#FFC300"></path>
                        <path d="M10.611938,5.82792858 C12.4152403,6.13506413 13.8376307,7.55923193 14.1420745,9.36347473 L19.3032499,9.36347473 C19.6744142,9.36347473 19.9754128,9.06255752 19.9754128,8.69130584 L19.9754128,8.67769272 C19.9754128,8.49946167 19.9045747,8.32845733 19.7785284,8.20240991 L11.7729924,0.196886072 C11.6469461,0.0707546193 11.4759433,-3.55271368e-15 11.2977139,-3.55271368e-15 L11.2841009,-3.55271368e-15 C10.9128525,-3.55271368e-15 10.611938,0.300917211 10.611938,0.672168883 L10.611938,5.82792858 Z" id="Fill-24" fill="#10AEFF"></path>
                        <path d="M9.36347473,12.9104173 C7.54765187,12.6103431 6.11391733,11.1784573 5.81115414,9.36347473 L0.672162851,9.36347473 C0.300998541,9.36347473 -7.42517159e-13,9.66438924 -7.42517159e-13,10.0356376 L-7.42517159e-13,10.0416038 C-7.42517159e-13,10.2198332 0.0708380152,10.390836 0.196884306,10.5168823 L8.21006714,18.5300651 C8.33611343,18.6561114 8.50711623,18.7269495 8.68534568,18.7269495 L8.69131188,18.7269495 C9.06256022,18.7269495 9.36347473,18.4259509 9.36347473,18.0547866 L9.36347473,12.9104173 Z" id="Fill-25" fill="#FA5151"></path>
                        <path d="M14.143419,9.36347473 C13.8417482,11.1714827 12.4179293,12.5993351 10.611938,12.9069721 L10.611938,18.0547866 C10.611938,18.4259509 10.9128525,18.7269495 11.2841009,18.7269495 L11.3036801,18.7269495 C11.4819095,18.7269495 11.6529123,18.6561114 11.7789586,18.5300651 L19.7785284,10.5304953 C19.9045747,10.404449 19.9754128,10.2334462 19.9754128,10.0552168 L19.9754128,10.0356376 C19.9754128,9.66438924 19.6744142,9.36347473 19.3032499,9.36347473 L14.143419,9.36347473 Z" id="Fill-26" fill="#07C160"></path>
                    </g>
                </g>
            </g>
        </g>
    </g>
</svg>