<?xml version="1.0" encoding="UTF-8"?>
<svg width="32px" height="32px" viewBox="0 0 32 32" version="1.1" xmlns="http://www.w3.org/2000/svg" xmlns:xlink="http://www.w3.org/1999/xlink">
    <!-- Generator: Sketch 56.2 (81672) - https://sketch.com -->
    <title>画板@2x</title>
    <desc>Created with Sketch.</desc>
    <g id="画板" stroke="none" stroke-width="1" fill="none" fill-rule="evenodd">
        <g id="Icons/Filled/clip" fill="#FFFFFF">
            <g id="Group-4">
                <g transform="translate(2.567901, 5.333333)">
                    <path d="M5.43209877,21.3333333 L0.840342581,21.3333333 C0.430780831,21.3333333 0.0987654321,20.9982376 0.0987654321,20.5740687 L0.0987654321,0.759264628 C0.0987654321,0.339934353 0.432389318,0 0.840342581,0 L2.7654321,0 L24.0987654,1.11022302e-16 L26.023855,0 C26.4334167,0 26.7654321,0.335095723 26.7654321,0.759264628 L26.7654321,20.5740687 C26.7654321,20.993399 26.4318082,21.3333333 26.023855,21.3333333 L21.4320988,21.3333333 L5.43209877,21.3333333 Z M5.43209877,20 L21.4320988,20 L21.4320988,1.33333333 L5.43209877,1.33333333 L5.43209877,20 Z M1.87654321,9.48148148 L1.87654321,12.6419753 L3.65432099,12.6419753 L3.65432099,9.48148148 L1.87654321,9.48148148 Z M23.2098765,9.48148148 L23.2098765,12.6419753 L24.9876543,12.6419753 L24.9876543,9.48148148 L23.2098765,9.48148148 Z" id="合并形状"></path>
                </g>
            </g>
        </g>
    </g>
</svg>