<?xml version="1.0" encoding="UTF-8"?>
<svg width="64px" height="64px" viewBox="0 0 64 64" version="1.1" xmlns="http://www.w3.org/2000/svg" xmlns:xlink="http://www.w3.org/1999/xlink">
    <!-- Generator: Sketch 53.2 (72643) - https://sketchapp.com -->
    <title>连接icon</title>
    <desc>Created with Sketch.</desc>
    <g id="连接icon" stroke="none" stroke-width="1" fill="none" fill-rule="evenodd">
        <path d="M36.7386671,49.1940545 C37.4699984,50.1476652 38.3607663,50.9744017 39.3715449,51.6351507 C36.7131642,52.7296569 33.8009409,53.3333333 30.7477214,53.3333333 C18.229267,53.3333333 8.08105469,43.185121 8.08105469,30.6666667 C8.08105469,18.1482123 18.229267,8 30.7477214,8 C43.2661757,8 53.414388,18.1482123 53.414388,30.6666667 C53.414388,32.3061125 53.2403347,33.904906 52.9096986,35.4455767 C52.0807175,34.5932757 51.1088551,33.87866 50.0323787,33.3396929 C50.1523821,32.4658387 50.214388,31.5734938 50.214388,30.6666667 C50.214388,19.9155235 41.4988645,11.2 30.7477214,11.2 C19.9965782,11.2 11.2810547,19.9155235 11.2810547,30.6666667 C11.2810547,41.4178098 19.9965782,50.1333333 30.7477214,50.1333333 C32.8380169,50.1333333 34.8513635,49.8038757 36.7386671,49.1940545 L36.7386671,49.1940545 Z" id="形状-copy-2" fill="#000000" fill-rule="nonzero"></path>
        <path d="M45.232955,50.1745937 C49.3623638,50.1745937 52.6996217,46.863822 52.6996217,42.7925831 C52.6996217,38.7213442 49.3623638,35.4105725 45.232955,35.4105725 C41.1035462,35.4105725 37.7662884,38.7213442 37.7662884,42.7925831 C37.7662884,46.863822 41.1035462,50.1745937 45.232955,50.1745937 Z M45.232955,53.3745937 C39.3419177,53.3745937 34.5662884,48.6368662 34.5662884,42.7925831 C34.5662884,36.9483001 39.3419177,32.2105725 45.232955,32.2105725 C51.1239924,32.2105725 55.8996217,36.9483001 55.8996217,42.7925831 C55.8996217,48.6368662 51.1239924,53.3745937 45.232955,53.3745937 Z" id="Oval-2-Copy-2" fill="#000000" fill-rule="nonzero"></path>
    </g>
</svg>