<?xml version="1.0" encoding="UTF-8"?>
<svg width="80px" height="80px" viewBox="0 0 80 80" version="1.1" xmlns="http://www.w3.org/2000/svg" xmlns:xlink="http://www.w3.org/1999/xlink">
    <!-- Generator: Sketch 53.2 (72643) - https://sketchapp.com -->
    <title>画板</title>
    <desc>Created with Sketch.</desc>
    <g id="画板" stroke="none" stroke-width="1" fill="none" fill-rule="evenodd">
        <g id="Group" transform="translate(0.000000, 6.000000)" fill="#FFFFFF">
            <path d="M42.5,63.2009745 L42.5,74 L37.5,74 L37.5,63.2009745 C25.7889167,61.9535431 16.6666667,52.0420794 16.6666667,40 L16.6666667,33.3333333 L21.6666667,33.3333333 L21.6666667,40 C21.6666667,50.1252204 29.8747796,58.3333333 40,58.3333333 C50.1252204,58.3333333 58.3333333,50.1252204 58.3333333,40 L58.3333333,33.3333333 L63.3333333,33.3333333 L63.3333333,40 C63.3333333,52.0420794 54.2110833,61.9535431 42.5,63.2009745 Z M26.6666667,20 C26.6666667,12.6362033 32.6362033,6.66666667 40,6.66666667 C47.3637967,6.66666667 53.3333333,12.6362033 53.3333333,20 L53.3333333,40 C53.3333333,47.3637967 47.3637967,53.3333333 40,53.3333333 C32.6362033,53.3333333 26.6666667,47.3637967 26.6666667,40 L26.6666667,20 Z" id="图标颜色"></path>
        </g>
    </g>
</svg>