<?xml version="1.0" encoding="UTF-8"?>
<svg width="24px" height="24px" viewBox="0 0 24 24" version="1.1" xmlns="http://www.w3.org/2000/svg" xmlns:xlink="http://www.w3.org/1999/xlink">
    <!-- Generator: Sketch 54.1 (76490) - https://sketchapp.com -->
    <title>画板</title>
    <desc>Created with Sketch.</desc>
    <g id="画板" stroke="none" stroke-width="1" fill="none" fill-rule="evenodd">
        <g id="Group复制" fill="#000000">
            <g id="编组" transform="translate(3.750000, 3.750000)">
                <path d="M15.640625,8.25 L15.640625,1.5984375 C15.640625,1.19026455 15.3097354,0.859375 14.9015625,0.859375 L8.25,0.859375 L8.25,8.25 L0.859375,8.25 L0.859375,14.9015625 C0.859375,15.3097354 1.19026455,15.640625 1.5984375,15.640625 L8.25,15.640625 L8.25,8.25 L15.640625,8.25 Z M0.916666667,0 L15.5833333,0 C16.0895944,-9.92298867e-16 16.5,0.410405646 16.5,0.916666667 L16.5,15.5833333 C16.5,16.0895944 16.0895944,16.5 15.5833333,16.5 L0.916666667,16.5 C0.410405646,16.5 3.95066001e-16,16.0895944 3.33066907e-16,15.5833333 L0,0.916666667 C-6.19990939e-17,0.410405646 0.410405646,4.26065548e-16 0.916666667,3.33066907e-16 Z" id="形状结合"></path>
            </g>
        </g>
    </g>
</svg>