<?xml version="1.0" encoding="UTF-8"?>
<svg width="24px" height="24px" viewBox="0 0 24 24" version="1.1" xmlns="http://www.w3.org/2000/svg" xmlns:xlink="http://www.w3.org/1999/xlink">
    <!-- Generator: Sketch 54.1 (76490) - https://sketchapp.com -->
    <title>Icons/Outlined/Font</title>
    <desc>Created with Sketch.</desc>
    <g id="Icons/Outlined/Font" stroke="none" stroke-width="1" fill="none" fill-rule="evenodd">
        <path d="M11.4836426,17.6257324 L10.3154297,14.2983398 L5.69091797,14.2983398 L4.52270508,17.6257324 L3,17.6257324 L7.28613281,6 L8.72021484,6 L13.0063477,17.6257324 L11.4836426,17.6257324 Z M7.97900391,7.7644043 L6.11791992,13.0656738 L9.88842773,13.0656738 L8.02734375,7.7644043 L7.97900391,7.7644043 Z M16.9943848,16.4897461 C18.4123535,16.4897461 19.4516602,15.5712891 19.4516602,14.3225098 L19.4516602,13.621582 L17.1796875,13.7666016 C15.8745117,13.847168 15.1977539,14.3225098 15.1977539,15.1604004 C15.1977539,15.9660645 15.8986816,16.4897461 16.9943848,16.4897461 Z M16.6962891,17.7062988 C14.9318848,17.7062988 13.7636719,16.6911621 13.7636719,15.1523438 C13.7636719,13.6618652 14.9077148,12.7836914 17.0185547,12.6547852 L19.4516602,12.5097656 L19.4516602,11.784668 C19.4516602,10.7050781 18.7426758,10.1088867 17.4616699,10.1088867 C16.4545898,10.1088867 15.7053223,10.6245117 15.5361328,11.4462891 L14.1906738,11.4462891 C14.230957,9.97998047 15.6569824,8.86010742 17.4777832,8.86010742 C19.5322266,8.86010742 20.8535156,9.95581055 20.8535156,11.6638184 L20.8535156,17.6257324 L19.5241699,17.6257324 L19.5241699,16.1191406 L19.4919434,16.1191406 C19.0004883,17.0859375 17.9128418,17.7062988 16.6962891,17.7062988 Z" id="Aa" fill="#000000" fill-rule="nonzero"></path>
    </g>
</svg>