<?xml version="1.0" encoding="UTF-8"?>
<svg width="24px" height="24px" viewBox="0 0 24 24" version="1.1" xmlns="http://www.w3.org/2000/svg" xmlns:xlink="http://www.w3.org/1999/xlink">
    <!-- Generator: Sketch 53 (72520) - https://sketchapp.com -->
    <title>icons_outlined_groupmessage</title>
    <desc>Created with Sketch.</desc>
    <g id="icons_outlined_groupmessage" stroke="none" stroke-width="1" fill="none" fill-rule="evenodd">
        <g id="icon14" fill="#000000" fill-rule="nonzero">
            <path d="M20.7766575,17.8 L22.8,17.8 L22.8,17.5962194 C22.8,17.4845959 22.6463054,17.2415527 22.5401598,17.1903156 L17.7735464,14.8894429 C16.3727962,14.2132924 16.0215331,12.5536065 17.0291527,11.371619 L17.3336012,11.0144859 C17.76679,10.506334 18.1684211,9.42060801 18.1684211,8.75848807 L18.1684211,7.33350622 C18.1684211,6.15902864 17.1996866,5.2 16,5.2 C15.8603391,5.2 15.7237741,5.2130348 15.5914809,5.23792445 C15.8530755,5.76976761 16,6.36799487 16,7.00020747 L16,8.71018568 C16,9.84929595 15.4009324,11.4828603 14.6680872,12.351573 L14.3065546,12.7801327 C13.7170324,13.4789507 13.9011877,14.3683976 14.725549,14.7705104 L20.3859024,17.5315576 C20.5233929,17.5986237 20.6550664,17.690323 20.7766575,17.8 L20.7766575,17.8 Z M3.2237298,17.8 C3.34517752,17.6901947 3.47670716,17.5983777 3.61409761,17.5313327 L9.27445076,14.769143 C10.0953771,14.36854 10.2862591,13.4812624 9.69344522,12.7786389 L9.33191269,12.350138 C8.59631763,11.4782852 8,9.84949648 8,8.70929053 L8,6.99958038 C8,6.36738949 8.14705917,5.76945652 8.40868399,5.23795548 C8.27633941,5.21304564 8.13971897,5.2 8,5.2 C6.8003134,5.2 5.83157895,6.15902864 5.83157895,7.33350622 L5.83157895,8.75848807 C5.83157895,9.42060801 6.23320998,10.506334 6.66639883,11.0144859 L6.97084731,11.371619 C7.97846694,12.5536065 7.62720377,14.2132924 6.22645357,14.8894429 L1.45984022,17.1903156 C1.35369458,17.2415527 1.2,17.4845959 1.2,17.5962194 L1.2,17.8 L3.2237298,17.8 L3.2237298,17.8 Z M14.8541394,4.19835043 C15.2120232,4.06998925 15.5979288,4 16,4 C17.8603276,4 19.3684211,5.49415019 19.3684211,7.33350622 L19.3684211,8.75848807 C19.3684211,9.70774662 18.8639431,11.0690503 18.2468102,11.7929775 L17.9423618,12.1501106 C17.445922,12.7324589 17.6010002,13.4736647 18.2951991,13.8087587 L23.0618125,16.1096313 C23.5799592,16.3597438 24,17.0209751 24,17.5962194 L24,18.1679682 C24,18.6274867 23.6202734,19 23.1566909,19 L21.4676453,19 C21.4887855,19.1061337 21.5,19.2119585 21.5,19.3154633 L21.5,20.0015619 C21.5,20.552984 21.0490746,21 20.4985704,21 L3.50142961,21 C2.94835531,21 2.5,20.5557555 2.5,20.0015619 L2.5,19.3154633 C2.5,19.2121874 2.51132049,19.1063349 2.53265848,19 L0.843309145,19 C0.379726648,19 4.26325641e-14,18.6274867 2.30926389e-14,18.1679682 L0,17.5962194 C-1.77635684e-14,17.0209751 0.420040849,16.3597438 0.938187495,16.1096313 L5.70480085,13.8087587 C6.39899983,13.4736647 6.55407797,12.7324589 6.05763824,12.1501106 L5.75318976,11.7929775 C5.13605694,11.0690503 4.63157895,9.70774662 4.63157895,8.75848807 L4.63157895,7.33350622 C4.63157895,5.49415019 6.13967242,4 8,4 C8.40227211,4 8.78836248,4.07005922 9.14639713,4.1985429 C9.87285625,3.45885633 10.8839886,3 12,3 C13.1177078,3 14.1283437,3.45897175 14.8541394,4.19835043 L14.8541394,4.19835043 Z M20.3,19.8 L20.3,19.3154633 C20.3,19.0860594 20.064679,18.7100199 19.8598095,18.6100873 L14.1994561,15.8490401 C12.6728743,15.1043932 12.2955728,13.302913 13.3893366,12.0063685 L13.7508692,11.5778088 C14.302195,10.9242686 14.8,9.56439093 14.8,8.71018568 L14.8,7.00020747 C14.8,5.4549142 13.5455898,4.2 12,4.2 C10.4563088,4.2 9.2,5.4552027 9.2,6.99958038 L9.2,8.70929053 C9.2,9.56566389 9.69574673,10.9204838 10.2490784,11.5763118 L10.610611,12.0048127 C11.7066364,13.3038601 11.3252143,15.1036503 9.80071945,15.8475869 L4.1403663,18.6097766 C3.93701709,18.7090088 3.7,19.0886771 3.7,19.3154633 L3.7,19.8 L20.3,19.8 Z" id="Shape"></path>
        </g>
    </g>
</svg>