<?xml version="1.0" encoding="UTF-8"?>
<svg width="32px" height="32px" viewBox="0 0 32 32" version="1.1" xmlns="http://www.w3.org/2000/svg" xmlns:xlink="http://www.w3.org/1999/xlink">
    <!-- Generator: Sketch 53.2 (72643) - https://sketchapp.com -->
    <title>画板</title>
    <desc>Created with Sketch.</desc>
    <g id="画板" stroke="none" stroke-width="1" fill="none" fill-rule="evenodd">
        <g id="分组-2-copy-2" fill="#000000">
            <g id="分组-2-copy" transform="translate(2.000000, 2.000000)">
                <g id="分组">
                    <g id="朋友圈-临时" transform="translate(0.666667, 0.666667)" fill-opacity="0.9">
                        <path d="M15.0427858,26.5567956 C14.4828073,26.6292778 13.9122246,26.6666667 13.3333333,26.6666667 C6,26.6666667 3.05533376e-13,20.6666667 3.05533376e-13,13.3333333 C3.05533376e-13,6 6,7.81597009e-14 13.3333333,7.81597009e-14 C20.6666667,7.81597009e-14 26.6666667,6 26.6666667,13.3333333 C26.6666667,13.9122278 26.6292774,14.4828136 26.5567944,15.0427949 C26.1433206,14.5573689 25.6740338,14.1209408 25.1588613,13.743438 C25.1737526,13.6079148 25.1874655,13.4712132 25.2,13.3333333 C25.2,12.1333333 24.9333333,11.0666667 24.6666667,10 L22.2684616,12.398205 C21.6489381,12.2479156 21.0018055,12.1682659 20.3360738,12.1682659 C20.2662407,12.1682659 20.1966124,12.1691424 20.1271994,12.1708848 L24,8.4 C22.9333333,6.13333333 21.0666667,4.26666667 18.9333333,3.06666667 L18.9333333,12.2882698 C18.3647728,12.386687 17.8163663,12.5438941 17.2945983,12.7534036 C17.0270221,10.7775867 15.4023705,9.33333333 13.3333333,9.33333333 C11.0666667,9.33333333 9.33333333,11.0666667 9.33333333,13.3333333 C9.33333333,14.4 9.73333333,15.4666667 10.5333333,16.1333333 C11.0788938,16.7880059 11.8923269,17.1748059 12.7544215,17.2937332 C12.3962579,18.1856889 12.1908909,19.1554828 12.1707102,20.1707102 L9.33333333,17.3333333 L9.33333333,24.4 C10.5333333,24.8 11.8666667,25.0666667 13.3333333,25.2 C13.4793337,25.2 13.6233604,25.1960526 13.7656535,25.188638 C14.1380015,25.6921249 14.5668314,26.1512979 15.0427858,26.5567956 Z M17.3333333,2.26666667 C16.1333333,1.86666667 14.8,1.6 13.3333333,1.6 C12.1333333,1.6 11.0666667,1.86666667 10,2.13333333 L17.3333333,9.33333333 L17.3333333,2.26666667 Z M8.4,2.66666667 C6.13333333,3.73333333 4.26666667,5.6 3.06666667,7.73333333 L13.3333333,7.73333333 L8.4,2.66666667 Z M2.26666667,9.33333333 C1.86666667,10.5333333 1.6,11.8666667 1.46666667,13.3333333 C1.46666667,14.5333333 1.73333333,15.6 2,16.6666667 L9.33333333,9.33333333 L2.26666667,9.33333333 Z M2.66666667,18.2666667 C3.73333333,20.5333333 5.6,22.4 7.73333333,23.6 L7.73333333,13.3333333 L2.66666667,18.2666667 Z" id="合并形状"></path>
                    </g>
                    <path d="M15.8357327,21.0029405 C15.8357327,23.8573303 18.1488713,26.1709483 21.0027404,26.1709483 C23.8568699,26.1709483 26.1707483,23.85707 26.1707483,21.0029405 C26.1707483,18.148811 23.8568699,15.8349326 21.0027404,15.8349326 C18.1488713,15.8349326 15.8357327,18.1485506 15.8357327,21.0029405 Z M14.3357327,21.0029405 C14.3357327,17.3203839 17.3201838,14.3349326 21.0027404,14.3349326 C24.6852971,14.3349326 27.6707483,17.3203839 27.6707483,21.0029405 C27.6707483,24.6854971 24.6852971,27.6709483 21.0027404,27.6709483 C17.3201838,27.6709483 14.3357327,24.6854971 14.3357327,21.0029405 Z" id="Path" fill-rule="nonzero"></path>
                    <polygon id="Path" points="21.7858588 21.0029405 24.003194 18.7856053 23.2210757 18.002487 21.0027404 20.2198221 18.7854053 18.002487 18.0022869 18.7856053 20.2206222 21.0029405 18.0022869 23.2202756 18.7854053 24.003394 21.0027404 21.7860588 23.2210757 24.003394 24.003194 23.2202756"></polygon>
                </g>
            </g>
        </g>
    </g>
</svg>