<?xml version="1.0" encoding="UTF-8"?>
<svg width="24px" height="24px" viewBox="0 0 24 24" version="1.1" xmlns="http://www.w3.org/2000/svg" xmlns:xlink="http://www.w3.org/1999/xlink">
    <!-- Generator: Sketch 53 (72520) - https://sketchapp.com -->
    <title>icons_outlined_display_lock</title>
    <desc>Created with Sketch.</desc>
    <g id="icons_outlined_display_lock" stroke="none" stroke-width="1" fill="none" fill-rule="evenodd">
        <g id="common_icons_tv&amp;display" fill="#000000" fill-rule="nonzero">
            <path d="M22,15 L23.0046024,15 C23.5543453,15 24,15.4466987 24,15.9959421 L24,21.5040579 C24,22.0541015 23.5443356,22.5 23.0046024,22.5 L14.9953976,22.5 C14.4456547,22.5 14,22.0533013 14,21.5040579 L14,21.4999993 L8,21.4999993 L8,20.8999993 C8,20.5686284 8.26617432,20.2999992 8.60130024,20.2999992 L14,20.2999992 L14,19 L3,19 C2.44771525,19 2,18.5522847 2,18 L2,5 C2,4.44771525 2.44771525,4 3,4 L21,4 C21.5522847,4 22,4.44771525 22,5 L22,15 Z M20.8,12.1397656 L20.8,5.2 L3.2,5.2 L3.2,17.8 L14,17.8 L14,15.9959421 C14,15.4458985 14.4556644,15 14.9953976,15 L16,15 L16,14.7 C16,12.9326888 17.3431458,11.5 19,11.5 C19.6753636,11.5 20.2986037,11.7380447 20.8,12.1397656 Z M17.2,15 L20.8,15 L20.8,14.7 C20.8,13.5787381 19.976183,12.7 19,12.7 C18.023817,12.7 17.2,13.5787381 17.2,14.7 L17.2,15 Z M15.2,21.3 L22.8,21.3 L22.8,16.2 L15.2,16.2 L15.2,21.3 Z" id="Combined-Shape"></path>
        </g>
    </g>
</svg>