<?xml version="1.0" encoding="UTF-8"?>
<svg width="24px" height="24px" viewBox="0 0 24 24" version="1.1" xmlns="http://www.w3.org/2000/svg" xmlns:xlink="http://www.w3.org/1999/xlink">
    <!-- Generator: Sketch 53.2 (72643) - https://sketchapp.com -->
    <title>Icons/Outlined/lock/open</title>
    <desc>Created with Sketch.</desc>
    <g id="Icons/Outlined/lock/open" stroke="none" stroke-width="1" fill="none" fill-rule="evenodd">
        <g id="Group" fill="#000000" fill-opacity="0.9">
            <path d="M14.8,9 L14.8,6 C14.8,3.790861 16.590861,2 18.8,2 C21.009139,2 22.8,3.790861 22.8,6 L22.8,9 L21.5999992,9 L21.5999992,6 C21.5999969,4.45359963 20.3463942,3.19999695 18.7999969,3.19999695 C17.2535996,3.19999695 15.9999969,4.45359963 15.9999969,5.9999969 L16,9 L18.9991283,9 C19.5518945,9 20,9.44748943 20,9.99850233 L20,21.0014977 C20,21.5529553 19.5553691,22 18.9991283,22 L5.00087166,22 C4.4481055,22 4,21.5525106 4,21.0014977 L4,9.99850233 C4,9.44704472 4.44463086,9 5.00087166,9 L14.8,9 Z M5.2,10.2 L5.2,20.8 L18.8,20.8 L18.8,10.2 L5.2,10.2 Z M11.3999996,15.8751867 C10.8702284,15.6437197 10.5,15.1150956 10.5,14.5 C10.5,13.6715729 11.1715729,13 12,13 C12.8284271,13 13.5,13.6715729 13.5,14.5 C13.5,15.1150958 13.1297713,15.6437201 12.5999997,15.875187 L12.5999997,18 L11.3999996,18 L11.3999996,15.8751867 Z" id="图标颜色"></path>
        </g>
        <g id="icon37" transform="translate(4.000000, 2.000000)"></g>
    </g>
</svg>