<?xml version="1.0" encoding="UTF-8"?>
<svg width="24px" height="24px" viewBox="0 0 24 24" version="1.1" xmlns="http://www.w3.org/2000/svg" xmlns:xlink="http://www.w3.org/1999/xlink">
    <!-- Generator: Sketch 55.2 (78181) - https://sketchapp.com -->
    <title>min_window</title>
    <desc>Created with Sketch.</desc>
    <g id="min_window" stroke="none" stroke-width="1" fill="none" fill-rule="evenodd">
        <path d="M11.9985309,8.03414388 C11.8664628,8.03454825 11.7348844,8.08585364 11.6338914,8.18684662 L5.90113234,13.9196057 C5.694833,14.125905 5.69922364,14.4499142 5.90177451,14.6524651 L6.78451699,15.5352076 C6.99038724,15.7410778 7.3151802,15.7380459 7.51737641,15.5358497 L12,11.0532261 L16.4826236,15.5358497 C16.6889229,15.7421491 17.0129321,15.7377584 17.215483,15.5352076 L18.0982255,14.6524651 C18.3040957,14.4465948 18.3010639,14.1218019 18.0988677,13.9196057 L12.3661086,8.18684662 C12.2630679,8.08380592 12.1306619,8.03332648 11.9986919,8.03384308 L11.9985309,8.03414388 Z M0,1.4472595 C0,0.647960149 0.641942024,0 1.4472595,0 L22.5527405,0 C23.3520399,0 24,0.641942024 24,1.4472595 L24,22.5527405 C24,23.3520399 23.358058,24 22.5527405,24 L1.4472595,24 C0.647960149,24 0,23.358058 0,22.5527405 L0,1.4472595 Z" id="形状" fill="#000000"></path>
    </g>
</svg>