<?xml version="1.0" encoding="UTF-8"?>
<svg width="24px" height="24px" viewBox="0 0 24 24" version="1.1" xmlns="http://www.w3.org/2000/svg" xmlns:xlink="http://www.w3.org/1999/xlink">
    <!-- Generator: Sketch 53.2 (72643) - https://sketchapp.com -->
    <title>Icons/Filled/pencil</title>
    <desc>Created with Sketch.</desc>
    <g id="Icons/Filled/pencil" stroke="none" stroke-width="1" fill="none" fill-rule="evenodd">
        <g id="Group-Copy">
            <rect id="Rectangle" x="0" y="0" width="24" height="24"></rect>
            <path d="M14.8101815,6.69951791 C11.9320856,7.49514087 7.88731465,10.9155433 5.54028928,15.3507934 L4.21447786,14.6492066 C6.74866431,9.86027212 11.1205974,6.16320971 14.4105106,5.25374366 C15.6851805,4.90137295 16.6865036,5.14364627 16.9808568,6.10299585 C17.208842,6.84604019 16.8489255,7.75873714 16.0995583,8.66775355 C14.8376758,10.1984742 13.4199248,12.5291283 12.6866969,14.2406337 C12.6001771,14.4425887 12.5255798,14.6307912 12.4637333,14.8026623 C14.2725495,13.4572993 15.5462465,12.9589657 16.3783903,13.4932787 C17.1724089,14.0031117 17.1260282,14.9924268 16.5428832,16.2616646 C16.900464,16.0735524 17.3355314,15.8238263 17.8396611,15.5140541 L18.6249585,16.7920635 C17.2904563,17.6120739 16.384808,18.0614248 15.8037024,18.1595309 C14.4813666,18.3827764 14.270549,17.3031051 14.8672691,16.2429501 C15.1840095,15.6802174 15.3796085,15.2005134 15.442041,14.8625171 C15.4485662,14.8271911 15.4533159,14.7951216 15.4565702,14.766527 C15.1610938,14.8499231 14.3268885,15.2660607 13.1564091,16.1588333 C12.0876747,16.9740008 11.0918245,17.1537319 10.7973351,16.0017246 C10.6595773,15.4628325 10.8576066,14.7010176 11.3078993,13.6499415 C12.0971565,11.8076521 13.5893781,9.35457521 14.9421413,7.71361205 C15.3475706,7.22180801 15.5406311,6.79670352 15.5521887,6.60709214 C15.4052244,6.5814874 15.1524787,6.60489302 14.8101815,6.69951791 Z" id="Path-11" fill="#000000" fill-rule="nonzero"></path>
        </g>
    </g>
</svg>