<?xml version="1.0" encoding="UTF-8"?>
<svg width="24px" height="24px" viewBox="0 0 24 24" version="1.1" xmlns="http://www.w3.org/2000/svg" xmlns:xlink="http://www.w3.org/1999/xlink">
    <!-- Generator: Sketch 53.2 (72643) - https://sketchapp.com -->
    <title>Icons/Filled/moment_off</title>
    <desc>Created with Sketch.</desc>
    <g id="Icons/Filled/moment_off" stroke="none" stroke-width="1" fill="none" fill-rule="evenodd">
        <g id="Group-2" fill="#000000">
            <g id="Group-3">
                <g id="Group" transform="translate(2.000000, 2.000000)">
                    <path d="M1.09245946e-13,10.0014117 C1.09245946e-13,11.2916067 0.244536961,12.524043 0.688604082,13.6559641 L6.84403447,7.50128381 L0.315047619,7.50128381 C0.109516553,8.30015456 1.09245946e-13,9.1380312 1.09245946e-13,10.0014117" id="Fill-1"></path>
                    <path d="M18.6182641,4.92074376 C17.552353,3.1174712 15.9366088,1.67725351 14.0020664,0.831875737 L14.0020664,8.62180317 C14.3351167,8.55879365 14.6779185,8.52428844 15.0267213,8.51228662 L18.6182641,4.92074376 Z" id="Fill-3"></path>
                    <path d="M12.5019146,0.315047619 C11.7030439,0.109516553 10.8651673,-1.21236354e-13 10.0017868,-1.21236354e-13 C8.71159175,-1.21236354e-13 7.47840535,0.243786848 6.34648426,0.688604082 L12.5019146,6.84403447 L12.5019146,0.315047619 Z" id="Fill-5"></path>
                    <path d="M4.92081878,1.3847093 C3.11754621,2.45062041 1.67732853,4.06636463 0.831950748,6.00090703 L9.53701651,6.00090703 L4.92081878,1.3847093 Z" id="Fill-7"></path>
                    <path d="M6.00090703,19.1707226 L6.00090703,10.4656569 L1.3847093,15.0818546 C2.45062041,16.8858773 4.06636463,18.3253449 6.00090703,19.1707226" id="Fill-9"></path>
                    <path d="M20.0030484,10.0014117 C20.0030484,8.71121669 19.7585115,7.47878041 19.3144444,6.34685932 L16.9388353,8.72171828 C18.101511,9.02176363 19.1441686,9.61735365 19.9760444,10.4327269 C19.9820453,10.287955 20.0030484,10.1476838 20.0030484,10.0014117" id="Fill-11"></path>
                    <path d="M8.5848976,14.2425527 L7.50098376,13.1586389 L7.50098376,19.6876258 C8.30060463,19.8939069 9.13848127,20.0026734 10.0018618,20.0026734 C10.148884,20.0026734 10.2929058,19.9884212 10.4391779,19.9824203 C9.24199692,18.7642362 8.50163501,17.0952339 8.50163501,15.2522054 C8.50163501,14.9079033 8.53539011,14.5726026 8.5848976,14.2425527" id="Fill-13"></path>
                    <path d="M15.8393941,15.2522054 L17.5023955,13.589204 L16.9158068,13.0018652 L15.2520553,14.6648666 L13.589054,13.0018652 L13.0017152,13.589204 L14.6654667,15.2522054 L13.0017152,16.9152067 L13.589054,17.5025455 L15.2520553,15.8395441 L16.9158068,17.5025455 L17.5023955,16.9152067 L15.8393941,15.2522054 Z M15.2520553,20.2532112 C12.4901379,20.2532112 10.2517995,18.0141228 10.2517995,15.2522054 C10.2517995,12.4902879 12.4901379,10.2511995 15.2520553,10.2511995 C18.0139728,10.2511995 20.2530612,12.4902879 20.2530612,15.2522054 C20.2530612,18.0141228 18.0139728,20.2532112 15.2520553,20.2532112 L15.2520553,20.2532112 Z" id="Fill-15"></path>
                </g>
            </g>
        </g>
    </g>
</svg>