<?xml version="1.0" encoding="UTF-8"?>
<svg width="17px" height="13px" viewBox="0 0 17 13" version="1.1" xmlns="http://www.w3.org/2000/svg" xmlns:xlink="http://www.w3.org/1999/xlink">
    <!-- Generator: Sketch 55 (78076) - https://sketchapp.com -->
    <title>icon_pic</title>
    <desc>Created with Sketch.</desc>
    <g id="icon_pic" stroke="none" stroke-width="1" fill="none" fill-rule="evenodd">
        <path d="M15.8,8.79527815 L15.8,1.2 L1.2,1.2 L1.2,8.24844041 L5.16603794,5.04104887 C5.5514992,4.72932084 6.17052135,4.74443932 6.54207952,5.07090307 L10.2724357,8.34852197 L12.1742521,6.73124805 C12.5594312,6.40369797 13.1722691,6.41035215 13.5461928,6.74590308 L15.8,8.79527815 Z M15.8,10.1082088 L12.8551531,7.49790751 L11.1226421,9.09554244 L12.1520323,10 L10.5952209,10 L5.83838021,5.98969972 L1.2,9.74637967 L1.2,11.8 L15.8,11.8 L15.8,10.1082088 Z M0.843032643,-1.50102153e-13 L16.1569674,-1.50102153e-13 C16.6129903,-1.50102153e-13 17,0.390923814 17,0.873152778 L17,12.1268472 C17,12.6109358 16.6225614,13 16.1569674,13 L0.843032643,13 C0.38700974,13 1.54543045e-13,12.6090762 1.54543045e-13,12.1268472 L1.54543045e-13,0.873152778 C1.54543045e-13,0.389064178 0.377438571,-1.50102153e-13 0.843032643,-1.50102153e-13 Z" id="图标颜色" fill="#FFFFFF"></path>
    </g>
</svg>