<?xml version="1.0" encoding="UTF-8"?>
<svg width="40px" height="40px" viewBox="0 0 40 40" version="1.1" xmlns="http://www.w3.org/2000/svg" xmlns:xlink="http://www.w3.org/1999/xlink">
    <!-- Generator: Sketch 54 (76480) - https://sketchapp.com -->
    <title>Minimizi_Avatar_Page</title>
    <desc>Created with Sketch.</desc>
    <g id="Minimizi_Avatar_Page" stroke="none" stroke-width="1" fill="none" fill-rule="evenodd">
        <rect fill="#FF9200" x="0" y="0" width="40" height="40"></rect>
        <g id="icon" transform="translate(12.410256, 12.000000)" fill="#FFFFFF">
            <path d="M0.41025641,14.3589744 L15.1794872,14.3589744 C15.4060655,14.3589744 15.5897436,14.5426524 15.5897436,14.7692308 C15.5897436,14.9958091 15.4060655,15.1794872 15.1794872,15.1794872 L0.41025641,15.1794872 C0.183678051,15.1794872 2.77478462e-17,14.9958091 0,14.7692308 C-2.77478462e-17,14.5426524 0.183678051,14.3589744 0.41025641,14.3589744 Z M9.31541553,6.31725389 C8.02137892,7.56279696 5.90831895,9.45832369 2.97623563,12.0038341 L2.3275317,11.3551301 C4.87304208,8.42304682 6.76856881,6.30998686 8.01411188,5.01595024 L9.31541553,6.31725389 Z M9.82170574,5.82139743 L8.50996834,4.50966003 C9.71973386,3.29989452 11.1077677,1.9945728 12.6740699,0.593694878 C12.952249,0.3448894 13.3763302,0.356701778 13.6402314,0.62060302 L13.7107626,0.691134331 C13.974662,0.955033794 13.9864743,1.37911213 13.737674,1.65729236 C12.3367949,3.223596 11.0314722,4.61163102 9.82170574,5.82139743 Z M2.43944659,12.4691917 C2.26307006,12.6218878 2.08391906,12.7767857 1.90199359,12.9338854 L0.829131682,13.6984134 C0.765867386,13.7434959 0.678034933,13.7287567 0.632952408,13.6654924 C0.598140141,13.6166403 0.598140141,13.5510861 0.632952408,13.5022341 L1.39748039,12.4293722 C1.55458012,12.2474467 1.70947801,12.0682957 1.86217406,11.8919192 L2.43944659,12.4691917 Z" id="形状结合"></path>
        </g>
    </g>
</svg>