<?xml version="1.0" encoding="UTF-8"?>
<svg width="40px" height="40px" viewBox="0 0 40 40" version="1.1" xmlns="http://www.w3.org/2000/svg" xmlns:xlink="http://www.w3.org/1999/xlink">
    <!-- Generator: Sketch 54 (76480) - https://sketchapp.com -->
    <title>Minimizi_Avatar_Keynote</title>
    <desc>Created with Sketch.</desc>
    <g id="Minimizi_Avatar_Keynote" stroke="none" stroke-width="1" fill="none" fill-rule="evenodd">
        <rect fill="#1E85F5" x="0" y="0" width="40" height="40"></rect>
        <g id="icon" transform="translate(11.666667, 12.500000)" fill="#FFFFFF">
            <path d="M7.95454966,15.0793651 C7.95454686,15.0787642 7.95454545,15.0781629 7.95454545,15.0775613 L7.95454545,9.04761905 L1.50793651,9.04761905 C0.675126171,9.04761905 3.56291266e-14,8.37249288 3.55271368e-14,7.53968254 L16.6666667,7.53968254 C16.6666667,8.37249288 15.9915405,9.04761905 15.1587302,9.04761905 L8.71212121,9.04761905 L8.71212121,15.0775613 C8.71212121,15.0781629 8.71211981,15.0787642 8.71211701,15.0793651 L11.744228,15.0793651 C11.9524306,15.0793651 12.1212121,15.2481466 12.1212121,15.4563492 C12.1212121,15.6645518 11.9524306,15.8333333 11.744228,15.8333333 L4.92243867,15.8333333 C4.71423609,15.8333333 4.54545455,15.6645518 4.54545455,15.4563492 C4.54545455,15.2481466 4.71423609,15.0793651 4.92243867,15.0793651 L7.95454966,15.0793651 Z M2.73768947,1.33226763e-15 L13.7080176,1.88737914e-15 C14.0699154,1.82089959e-15 14.3812764,0.25596468 14.4512836,0.611026693 L15.6881313,6.88405797 L0.757575758,6.88405797 L1.99442343,0.611026693 C2.06443067,0.25596468 2.37579163,6.21591067e-16 2.73768947,5.55111512e-16 Z M5.20742596,5.22784962 L7.02511485,3.53177072 L8.6842353,4.64112246 C8.81217954,4.72383842 8.98076389,4.70750886 9.08601597,4.60210283 L11.3970082,2.10054342 L10.9410266,1.65786609 L8.8095856,3.97816099 L7.17773984,2.86875897 C7.06027532,2.78602039 6.89982361,2.80238386 6.79332796,2.90785526 L4.79099576,4.78532561 L5.20742596,5.22784962 Z" id="形状结合"></path>
        </g>
    </g>
</svg>