<?xml version="1.0" encoding="UTF-8"?>
<svg width="40px" height="40px" viewBox="0 0 40 40" version="1.1" xmlns="http://www.w3.org/2000/svg" xmlns:xlink="http://www.w3.org/1999/xlink">
    <!-- Generator: Sketch 54 (76480) - https://sketchapp.com -->
    <title>Minimizi_Avatar_Number</title>
    <desc>Created with Sketch.</desc>
    <g id="Minimizi_Avatar_Number" stroke="none" stroke-width="1" fill="none" fill-rule="evenodd">
        <rect fill="#1DCC25" x="0" y="0" width="40" height="40"></rect>
        <g id="Numbers" transform="translate(11.666667, 12.666667)" fill="#FFFFFF">
            <path d="M0.416666667,10.6666667 L2.91666667,10.6666667 C3.14678531,10.6666667 3.33333333,10.8532147 3.33333333,11.0833333 L3.33333333,12.75 C3.33333333,12.9801186 3.14678531,13.1666667 2.91666667,13.1666667 L0.416666667,13.1666667 C0.186548021,13.1666667 -3.78859349e-14,12.9801186 -3.79141163e-14,12.75 L-3.76365605e-14,11.0833333 C-3.76647419e-14,10.8532147 0.186548021,10.6666667 0.416666667,10.6666667 Z M5,6.91666667 L7.5,6.91666667 C7.73011865,6.91666667 7.91666667,7.10321469 7.91666667,7.33333333 L7.91666667,12.75 C7.91666667,12.9801186 7.73011865,13.1666667 7.5,13.1666667 L5,13.1666667 C4.76988135,13.1666667 4.58333333,12.9801186 4.58333333,12.75 L4.58333333,7.33333333 C4.58333333,7.10321469 4.76988135,6.91666667 5,6.91666667 Z M9.58333333,0.666666667 L12.0833333,0.666666667 C12.313452,0.666666667 12.5,0.853214688 12.5,1.08333333 L12.5,12.75 C12.5,12.9801186 12.313452,13.1666667 12.0833333,13.1666667 L9.58333333,13.1666667 C9.35321469,13.1666667 9.16666667,12.9801186 9.16666667,12.75 L9.16666667,1.08333333 C9.16666667,0.853214688 9.35321469,0.666666667 9.58333333,0.666666667 Z M0.416666667,14 L17.0833333,14 C17.313452,14 17.5,14.186548 17.5,14.4166667 C17.5,14.6467853 17.313452,14.8333333 17.0833333,14.8333333 L0.416666667,14.8333333 C0.186548021,14.8333333 2.81814063e-17,14.6467853 0,14.4166667 C-2.81814063e-17,14.186548 0.186548021,14 0.416666667,14 Z M14.1666667,4.41666667 L16.6666667,4.41666667 C16.8967853,4.41666667 17.0833333,4.60321469 17.0833333,4.83333333 L17.0833333,12.75 C17.0833333,12.9801186 16.8967853,13.1666667 16.6666667,13.1666667 L14.1666667,13.1666667 C13.936548,13.1666667 13.75,12.9801186 13.75,12.75 L13.75,4.83333333 C13.75,4.60321469 13.936548,4.41666667 14.1666667,4.41666667 Z" id="形状结合"></path>
        </g>
    </g>
</svg>