<?xml version="1.0" encoding="UTF-8"?>
<svg width="40px" height="40px" viewBox="0 0 40 40" version="1.1" xmlns="http://www.w3.org/2000/svg" xmlns:xlink="http://www.w3.org/1999/xlink">
    <!-- Generator: Sketch 54 (76480) - https://sketchapp.com -->
    <title>Minimizi_Avatar_Fav</title>
    <desc>Created with Sketch.</desc>
    <g id="Minimizi_Avatar_Fav" stroke="none" stroke-width="1" fill="none" fill-rule="evenodd">
        <rect fill="#FFFFFF" x="0" y="0" width="40" height="40"></rect>
        <g id="Fav" transform="translate(8.000000, 8.000000)">
            <path d="M20.1991242,6.40020803 L12,11.1339746 L3.80085813,6.40019783 C3.82136925,6.38681955 3.8420775,6.37414138 3.86295784,6.36220591 L11.1370422,2.20424535 C11.6136406,1.93181552 12.3867187,1.93202094 12.8629578,2.20424535 L20.1370422,6.36220591 C20.1579176,6.37413857 20.1786199,6.38682047 20.1991242,6.40020803 L20.1991242,6.40020803 Z" id="Path" fill="#1485EE"></path>
            <path d="M20.9896226,7.67586436 C20.9964541,7.72902115 21,7.7814606 21,7.83272697 L21,16.167273 C21,16.7069896 20.6132812,17.3655697 20.1370422,17.6377941 L12.8629578,21.7957547 C12.8269153,21.816357 12.7891771,21.8354002 12.75,21.8528844 L12.75,12.4330127 L20.9896226,7.67586436 L20.9896226,7.67586436 Z" id="Path" fill="#FA5151"></path>
            <path d="M11.25,21.8528815 C11.210819,21.8353971 11.1730807,21.8163547 11.1370422,21.7957547 L3.86295784,17.6377941 C3.38635938,17.3653643 3,16.7024094 3,16.167273 L3,7.83272697 C3,7.7813482 3.00350454,7.72889226 3.01025723,7.675795 L11.25,12.4330127 L11.25,21.8528815 L11.25,21.8528815 Z" id="Path" fill="#FFC300"></path>
        </g>
    </g>
</svg>