<?xml version="1.0" encoding="UTF-8"?>
<svg width="40px" height="40px" viewBox="0 0 40 40" version="1.1" xmlns="http://www.w3.org/2000/svg" xmlns:xlink="http://www.w3.org/1999/xlink">
    <!-- Generator: Sketch 54 (76480) - https://sketchapp.com -->
    <title>Minimizi_Avatar_Link_Default</title>
    <desc>Created with Sketch.</desc>
    <g id="Minimizi_Avatar_Link_Default" stroke="none" stroke-width="1" fill="none" fill-rule="evenodd">
        <rect fill="#EDEDED" x="0" y="0" width="40" height="40"></rect>
        <path d="M25.6568542,20 L24.2426407,18.5857864 L26.363961,16.4644661 C27.1450096,15.6834175 27.1450096,14.4170876 26.363961,13.636039 C25.5829124,12.8549904 24.3165825,12.8549904 23.5355339,13.636039 L19.2928932,17.8786797 C18.5118446,18.6597282 18.5118446,19.9260582 19.2928932,20.7071068 L17.8786797,22.1213203 C16.3165825,20.5592232 16.3165825,18.0265633 17.8786797,16.4644661 L22.1213203,12.2218254 C23.6834175,10.6597282 26.2160774,10.6597282 27.7781746,12.2218254 C29.3402718,13.7839226 29.3402718,16.3165825 27.7781746,17.8786797 L25.6568542,20 Z M14.3431458,20 L15.7573593,21.4142136 L13.636039,23.5355339 C12.8549904,24.3165825 12.8549904,25.5829124 13.636039,26.363961 C14.4170876,27.1450096 15.6834175,27.1450096 16.4644661,26.363961 L20.7071068,22.1213203 C21.4881554,21.3402718 21.4881554,20.0739418 20.7071068,19.2928932 L22.1213203,17.8786797 C23.6834175,19.4407768 23.6834175,21.9734367 22.1213203,23.5355339 L17.8786797,27.7781746 C16.3165825,29.3402718 13.7839226,29.3402718 12.2218254,27.7781746 C10.6597282,26.2160774 10.6597282,23.6834175 12.2218254,22.1213203 L14.3431458,20 Z" id="图标颜色" fill="#767676"></path>
    </g>
</svg>