<?xml version="1.0" encoding="UTF-8"?>
<svg width="40px" height="40px" viewBox="0 0 40 40" version="1.1" xmlns="http://www.w3.org/2000/svg" xmlns:xlink="http://www.w3.org/1999/xlink">
    <!-- Generator: Sketch 54 (76480) - https://sketchapp.com -->
    <title>Minimizi_Avatar_PDF</title>
    <desc>Created with Sketch.</desc>
    <g id="Minimizi_Avatar_PDF" stroke="none" stroke-width="1" fill="none" fill-rule="evenodd">
        <rect fill="#E64340" x="0" y="0" width="40" height="40"></rect>
        <path d="M7.87740072,14.6849772 L11.758016,14.6849772 C13.7432861,14.6849772 15.1198324,16.0338542 15.1198324,18.0260417 C15.1198324,20.0182292 13.7017822,21.3671061 11.6819255,21.3671061 L9.66206868,21.3671061 L9.66206868,24.6666667 L7.87740072,24.6666667 L7.87740072,14.6849772 Z M9.66206868,16.1445312 L9.66206868,19.928304 L11.280721,19.928304 C12.5604248,19.928304 13.3074951,19.2365723 13.3074951,18.0260417 C13.3074951,16.8293457 12.5673421,16.1445312 11.2876383,16.1445312 L9.66206868,16.1445312 Z M16.4202881,14.6849772 L20.0657145,14.6849772 C23.0470785,14.6849772 24.8109945,16.4903971 24.8109945,19.6516113 C24.8109945,22.8128255 23.0539958,24.6666667 20.0657145,24.6666667 L16.4202881,24.6666667 L16.4202881,14.6849772 Z M18.2049561,16.1929525 L18.2049561,23.1586914 L19.8789469,23.1586914 C21.8849691,23.1586914 22.9917399,21.9343262 22.9917399,19.6585286 C22.9917399,17.424235 21.8711344,16.1929525 19.8789469,16.1929525 L18.2049561,16.1929525 Z M28.0067952,24.6666667 L26.2221273,24.6666667 L26.2221273,14.6849772 L32.5860596,14.6849772 L32.5860596,16.1929525 L28.0067952,16.1929525 L28.0067952,19.1397298 L32.1917725,19.1397298 L32.1917725,20.5923665 L28.0067952,20.5923665 L28.0067952,24.6666667 Z" id="PDF" fill="#FFFFFF" fill-rule="nonzero"></path>
    </g>
</svg>