<?xml version="1.0" encoding="UTF-8"?>
<svg width="40px" height="40px" viewBox="0 0 40 40" version="1.1" xmlns="http://www.w3.org/2000/svg" xmlns:xlink="http://www.w3.org/1999/xlink">
    <!-- Generator: Sketch 54 (76480) - https://sketchapp.com -->
    <title>Minimizi_Avatar_Music</title>
    <desc>Created with Sketch.</desc>
    <g id="Minimizi_Avatar_Music" stroke="none" stroke-width="1" fill="none" fill-rule="evenodd">
        <rect fill="#6467F0" x="0" y="0" width="40" height="40"></rect>
        <g id="common_icons_music" transform="translate(11.000000, 10.000000)" fill="#FFFFFF">
            <path d="M15,2.30884616 L5,4.50115378 L5,16.1957627 L5,17.2012686 C5,18.1376561 4.37291357,19.0506958 3.5294712,19.4440654 C3.37267856,19.5171912 2.382193,19.7385747 2.25286076,19.7645934 C1.01016532,20.0145956 0.0553448658,18.9501591 0.00276162012,17.8737811 C-0.0498216255,16.7974031 0.656063268,15.8998615 1.47506962,15.7350959 L2.73958069,15.4178208 C3.18656759,15.3056685 3.5,14.9038781 3.5,14.443036 L3.5,4.31174524 L3.5,3.96041523 C3.5,3.49056505 3.8270984,3.08408046 4.2860712,2.98356598 L15.8930356,0.44165489 C16.1627851,0.382580083 16.4293498,0.553365645 16.4884246,0.823115118 C16.4961191,0.858249802 16.5,0.894112163 16.5,0.930079518 L16.5,1.48739624 L16.5,13.5337821 L16.5,14.5392879 C16.5,15.4756754 15.8674685,16.3887152 15.0167025,16.7820848 C14.8585484,16.8552106 13.8594624,17.0765941 13.7290072,17.1026128 C12.4755213,17.352615 11.5124101,16.2881785 11.4593703,15.2118005 C11.4063304,14.1354225 12.1183446,13.2378809 12.9444624,13.0731153 L14.23615,12.7538472 C14.6848085,12.6429517 15,12.2403684 15,11.7782081 L15,2.30884616 Z" id="图标颜色"></path>
        </g>
    </g>
</svg>