<?xml version="1.0" encoding="UTF-8"?>
<svg width="40px" height="40px" viewBox="0 0 40 40" version="1.1" xmlns="http://www.w3.org/2000/svg" xmlns:xlink="http://www.w3.org/1999/xlink">
    <!-- Generator: Sketch 53.2 (72643) - https://sketchapp.com -->
    <title>ifo</title>
    <desc>Created with Sketch.</desc>
    <g id="ifo" stroke="none" stroke-width="1" fill="none" fill-rule="evenodd" fill-opacity="0.9">
        <g id="3.Icons/Outlined/error" fill="#000000">
            <g id="Icons/Tint-Color/Black" transform="translate(3.333333, 3.333333)">
                <path d="M16.6666667,33.3333333 C7.46192084,33.3333333 0,25.8714125 0,16.6666667 C0,7.46192084 7.46192084,0 16.6666667,0 C25.8714125,0 33.3333333,7.46192084 33.3333333,16.6666667 C33.3333333,25.8714125 25.8714125,33.3333333 16.6666667,33.3333333 Z M16.6666667,31.3333333 C24.766843,31.3333333 31.3333333,24.766843 31.3333333,16.6666667 C31.3333333,8.56649034 24.766843,2 16.6666667,2 C8.56649034,2 2,8.56649034 2,16.6666667 C2,24.766843 8.56649034,31.3333333 16.6666667,31.3333333 Z M15.5680339,7.38525391 L17.7652995,7.38525391 L17.6188151,19.152832 L15.7145182,19.152832 L15.5680339,7.38525391 Z M16.6666667,25.1220703 C15.8854167,25.1220703 15.2750651,24.5117188 15.2750651,23.7304688 C15.2750651,22.9370117 15.8854167,22.3388672 16.6666667,22.3388672 C17.4601237,22.3388672 18.0582682,22.9370117 18.0582682,23.7304688 C18.0582682,24.5117188 17.4601237,25.1220703 16.6666667,25.1220703 Z" id="图标颜色"></path>
            </g>
        </g>
    </g>
</svg>