<?xml version="1.0" encoding="UTF-8"?>
<svg width="16px" height="16px" viewBox="0 0 16 16" version="1.1" xmlns="http://www.w3.org/2000/svg" xmlns:xlink="http://www.w3.org/1999/xlink">
    <!-- Generator: Sketch 53.2 (72643) - https://sketchapp.com -->
    <title>zan</title>
    <desc>Created with Sketch.</desc>
    <g id="====slice====" stroke="none" stroke-width="1" fill="none" fill-rule="evenodd" opacity="1">
        <g id="zan">
            <g id="Group-15">
                <path d="M1.9601009,6.07610889 L1.25643268,6.07610889 C0.852038386,6.07610889 0.439453125,6.49902214 0.439453125,6.99737926 L0.439453125,13.5150715 C0.439453125,13.9919427 0.860110626,14.6618583 1.11665406,14.6618583 L10.4195573,14.6618583 C11.0386907,14.6618583 11.901092,13.9045944 12.4568764,12.7302999 C12.468327,12.7061065 12.5595394,12.5170101 12.5951799,12.4423073 C12.6722327,12.2808044 12.7469835,12.1206697 12.8252982,11.9480185 C13.0408072,11.4729116 13.2478486,10.9807922 13.4420101,10.4691824 C13.8139295,9.48918526 14.099735,8.53915062 14.2684709,7.65308176 C14.2934028,7.52215911 14.3156515,7.39315427 14.3351467,7.26616223 C14.4750457,6.35485693 13.7190911,5.58877429 13.1125384,5.58877429 L8.7899383,5.58877429 L8.81158564,5.12866836 C8.8180522,4.99122413 8.83391544,4.84732986 8.86118684,4.65976725 C8.87411096,4.57087988 8.92783045,4.22833082 8.93915361,4.15264049 C9.02013429,3.61132022 9.06012849,3.1614832 9.06012849,2.61042543 C9.06012849,1.39797534 8.38359082,0.586056146 7.5594298,0.463278087 C6.73509139,0.340473602 6.05977804,0.649536641 6.05977804,1.17102855 C6.05977804,2.6854254 5.89312514,3.54480448 5.16616779,4.74999762 C4.82817731,5.31051326 4.3272913,5.68467528 3.71848487,5.89731157 C3.1535753,6.09461611 2.57022226,6.13509001 2.05041798,6.08862528 C1.98362321,6.08265457 1.93294556,6.07639789 1.96010128,6.07610889 Z" id="Combined-Shape" stroke="#080808" stroke-width="0.87890625"></path>
                <rect id="Rectangle" fill="#121213" x="2.16566348" y="6.07940182" width="1" height="8.47058824"></rect>
            </g>
        </g>
    </g>
</svg>