<?xml version="1.0" encoding="UTF-8"?>
<svg width="16px" height="16px" viewBox="0 0 16 16" version="1.1" xmlns="http://www.w3.org/2000/svg" xmlns:xlink="http://www.w3.org/1999/xlink">
    <!-- Generator: Sketch 53.2 (72643) - https://sketchapp.com -->
    <title>zanHL</title>
    <desc>Created with Sketch.</desc>
    <g id="====slice====" stroke="none" stroke-width="1" fill="none" fill-rule="evenodd" opacity="1">
        <g id="zanHL" fill="#080808">
            <path d="M9.1530915,5.11477549 L13.2948974,5.11477549 C13.9169785,5.11477549 15.1945303,5.88215245 14.9749142,7.28364922 C14.5817128,9.79289335 12.8402996,13.0371457 12.8402996,12.918292 C12.2996581,14.2817887 11.1865455,15 10.5644644,15 L1.13218361,15 C0.510102474,15 -9.09494702e-13,14.0133651 -9.09494702e-13,13.4244018 L-9.09494702e-13,6.95043536 C-9.09494702e-13,6.18055363 0.651334429,5.59884066 1.27390617,5.59884066 L1.99183957,5.59884066 C1.99183957,5.59884066 3.98612718,5.90670645 4.85645205,4.49272718 C5.6786981,3.15727635 5.69848802,2.13301796 5.69848802,1.16317237 C5.69848802,0.193326786 6.85149398,-0.0998143866 7.73021321,0.028429658 C8.62766009,0.159406894 9.81379219,1.03111958 9.50912942,2.58345847 C9.26431989,3.83149967 9.18007452,4.55292323 9.1530915,5.11477549 Z M1.80991557,6.66606093 L1.80991557,13.9757211 C1.80991557,14.2850378 2.05836384,14.5277715 2.36484033,14.5277715 C2.6623537,14.5277715 2.91976509,14.2789202 2.91976509,13.9719467 L2.91976509,6.61230965 C2.91976509,6.30087812 2.67131681,6.06936244 2.36484033,6.08524772 C2.06732695,6.10066843 1.80991557,6.36117194 1.80991557,6.66606093 Z" id="Combined-Shape-Copy"></path>
        </g>
    </g>
</svg>