<?xml version="1.0" encoding="utf-8"?>	<svg height="40px" version="1.1" viewBox="0 0 40 40" width="40px" xmlns="http://www.w3.org/2000/svg" xmlns:xlink="http://www.w3.org/1999/xlink">		
    		<!-- Generator: Sketch 53.2 (72643) - https://sketchapp.com -->		
    		<title>Group Copy</title>		
    		<desc>Created with Sketch.</desc>		
    		<g fill="none" fill-rule="evenodd" id="===slice===" stroke="none" stroke-width="1">			
        			<g id="s">				
            				<g id="Group-Copy">					
                					<path d="M20,39.6 C30.8247811,39.6 39.6,30.8247811 39.6,20 C39.6,9.1752189 30.8247811,0.4 20,0.4 C9.1752189,0.4 0.4,9.1752189 0.4,20 C0.4,30.8247811 9.1752189,39.6 20,39.6 Z" fill="#000000" fill-opacity="0.3" id="图标颜色" stroke="#FFFFFF" stroke-opacity="0.9" stroke-width="0.8"/>					
                					<path d="M17.5299989,12.760497 C17.3710673,12.6611647 17.1874197,12.6084953 17,12.6084953 C16.4477153,12.6084953 16,13.0562105 16,13.6084953 L16,26.3915047 C16,26.5789244 16.0526694,26.7625721 16.1520017,26.9215037 C16.444712,27.3898402 17.0616624,27.5322134 17.5299989,27.239503 L27.7564065,20.8479983 C27.8851756,20.7675176 27.9939251,20.6587681 28.0744059,20.5299989 C28.3671162,20.0616624 28.224743,19.444712 27.7564065,19.1520017 L17.5299989,12.760497 Z" fill="#FFFFFF" id="Rectangle-39"/>					
            				</g>				
        			</g>			
    		</g>		
	</svg>