<?xml version="1.0" encoding="UTF-8"?>
<svg width="20px" height="20px" viewBox="0 0 20 20" version="1.1" xmlns="http://www.w3.org/2000/svg" xmlns:xlink="http://www.w3.org/1999/xlink">
    <!-- Generator: Sketch 53.2 (72643) - https://sketchapp.com -->
    <title>wow</title>
    <desc>Created with Sketch.</desc>
    <g id="====slice====" stroke="none" stroke-width="1" fill="none" fill-rule="evenodd">
        <g id="wow" fill="#959595">
            <g id="Icons/Tint-Color/Black-Copy-2" transform="translate(2.000000, 1.000000)">
                <path d="M4.78718343,3.37848165 L6.97361588,1.16714981 C7.54152996,0.592768246 8.45847004,0.592768246 9.02638412,1.16714981 L11.2128166,3.37848173 L14.2002153,4.18891598 C14.9751813,4.39711059 15.4378153,5.20738072 15.2303977,5.99713389 L14.4297309,9.01613774 L15.2307047,12.0363047 C15.4378153,12.8248945 14.9751813,13.6351647 14.2013326,13.8430576 L11.2345938,14.6478858 L9.02638412,16.8733221 C8.45847004,17.4477037 7.54152996,17.4477037 6.97361588,16.8733221 L4.78718335,14.6619902 L1.79978474,13.8515559 C1.02481868,13.6433613 0.562184747,12.8330912 0.769602346,12.043338 L1.57031339,9.0241673 L0.769295322,5.99597057 C0.562184747,5.20738072 1.02481868,4.39711059 1.79866739,4.18921763 L4.78718343,3.37848165 Z M5.51618204,4.66959406 L5.52191055,6.72107615 C5.52191055,7.24774078 5.24530163,7.73647635 4.79894728,8.00489864 L3.04084437,9.02432024 L4.790585,10.0388561 C5.24178495,10.2978589 5.52191055,10.7893946 5.52191055,11.3193958 L5.51618177,13.3708855 L7.27044071,12.3388314 C7.71969097,12.0686676 8.27633622,12.0686676 8.73285764,12.3359794 L10.4838276,13.366116 L10.4780895,11.3111991 C10.4780895,10.7910211 10.7561382,10.3031297 11.2010527,10.0355733 L12.9591556,9.01615166 L11.209415,8.00161583 C10.7582151,7.74261303 10.4780895,7.25107734 10.4780895,6.72107615 L10.4838182,4.66958641 L8.72955929,5.70164051 C8.28024205,5.97184459 7.72227842,5.97227894 7.27261188,5.70294357 L5.51618204,4.66959406 Z M4.56191251,6.72247844 L4.55558514,4.45708186 L2.04368327,5.13851894 C1.78237054,5.2087206 1.6277072,5.47960234 1.69620774,5.74042659 L2.36932085,8.28508451 L4.3150837,7.15689501 C4.46810751,7.0635748 4.56191056,6.89680669 4.56191251,6.72247844 Z M4.31891882,10.8939972 L2.36895586,9.76337241 L1.69643239,12.299193 C1.6277072,12.5608696 1.78237054,12.8317513 2.04480061,12.9022546 L4.55558514,13.5833898 L4.56191021,11.3188159 C4.5617051,11.1433349 4.46840206,10.9798104 4.31891882,10.8939972 Z M7.75308301,13.187532 L5.81941672,14.325154 L7.64864382,16.1752126 C7.84253908,16.3713159 8.15746092,16.3713159 8.35196287,16.1746 L10.1876801,14.3245612 L8.25551448,13.1878222 C8.09618035,13.0946916 7.90739276,13.0947613 7.75308301,13.187532 Z M11.4380875,11.3097968 L11.4444149,13.5751934 L13.9563167,12.8937563 C14.2176295,12.8235547 14.3722928,12.5526729 14.3038746,12.2921597 L13.6310439,9.75517591 L11.6849169,10.8835766 C11.532399,10.9765897 11.4380894,11.1430619 11.4380875,11.3097968 Z M11.6810812,7.14647468 L13.6310441,8.27709949 L14.3035676,5.74127891 C14.3722928,5.47960234 14.2176295,5.2087206 13.9551994,5.1382173 L11.4444149,4.45708214 L11.4380898,6.72165597 C11.4382949,6.89713703 11.5315979,7.06066148 11.6810812,7.14647468 Z M7.75308301,4.85293986 C7.90671829,4.94530502 8.09328171,4.94530502 8.24691699,4.85293986 L10.1805833,3.71531792 L8.35135618,1.86525934 C8.15746092,1.66915598 7.84253908,1.66915598 7.64864382,1.86525934 L5.81941672,3.71531792 L7.75308301,4.85293986 Z" id="图标颜色"></path>
            </g>
        </g>
    </g>
</svg>