<?xml version="1.0" encoding="utf-8"?>	<svg height="20px" version="1.1" viewBox="0 0 20 20" width="20px" xmlns="http://www.w3.org/2000/svg" xmlns:xlink="http://www.w3.org/1999/xlink">		
    		<!-- Generator: Sketch 53.2 (72643) - https://sketchapp.com -->		
    		<title>write</title>		
    		<desc>Created with Sketch.</desc>		
    		<g fill="none" fill-rule="evenodd" id="====slice====" stroke="none" stroke-width="1">			
        			<g id="write">				
            				<rect fill="#D8D8D8" height="19" id="Rectangle" opacity="0" width="19" x="0" y="0"/>				
            				<path d="M12.0833333,3.375 L12.0833333,4.325 L4.325,4.325 L4.325,16.675 L16.675,16.675 L16.675,8.91666667 L17.625,8.91666667 L17.625,16.8333333 C17.625,17.2705588 17.2705588,17.625 16.8333333,17.625 L4.16666667,17.625 C3.72944124,17.625 3.375,17.2705588 3.375,16.8333333 L3.375,4.16666667 C3.375,3.72944124 3.72944124,3.375 4.16666667,3.375 L12.0833333,3.375 Z M16.723198,3.17398003 C16.8773937,3.01978433 17.1273943,3.01978433 17.28159,3.17398003 L17.839982,3.73237205 C17.9941777,3.88656775 17.9941777,4.13656837 17.839982,4.29076407 L10.3115087,11.8192373 L8.47753867,12.8448201 C8.36334345,12.9086825 8.21899928,12.8678796 8.15513694,12.7536844 C8.11457966,12.681162 8.11498209,12.5926925 8.15619746,12.5205421 L9.19482346,10.7023545 L16.723198,3.17398003 Z" fill="#FFFFFF" id="图标颜色" opacity="1"/>				
        			</g>			
    		</g>		
	</svg>