<?xml version="1.0" encoding="utf-8"?>	<svg height="66px" version="1.1" viewBox="0 0 60 66" width="60px" xmlns="http://www.w3.org/2000/svg" xmlns:xlink="http://www.w3.org/1999/xlink">		
    		<!-- Generator: Sketch 53.2 (72643) - https://sketchapp.com -->		
    		<title>Artboard</title>		
    		<desc>Created with Sketch.</desc>		
    		<g fill="none" fill-rule="evenodd" id="190226-过kink后修改稿" stroke="none" stroke-width="1">			
        			<g fill="#444446" id="Artboard" transform="translate(-526.000000, -487.000000)">				
            				<path d="M548.343146,493 C549.404012,493 550.421427,492.578573 551.171573,491.828427 L554.585786,488.414214 C555.366835,487.633165 556.633165,487.633165 557.414214,488.414214 L560.828427,491.828427 C561.578573,492.578573 562.595988,493 563.656854,493 L582,493 C584.209139,493 586,494.790861 586,497 L586,549 C586,551.209139 584.209139,553 582,553 L530,553 C527.790861,553 526,551.209139 526,549 L526,497 C526,494.790861 527.790861,493 530,493 L548.343146,493 Z" id="Combined-Shape"/>				
        			</g>			
    		</g>		
	</svg>