<?xml version="1.0" encoding="UTF-8"?>
<svg width="40px" height="40px" viewBox="0 0 40 40" version="1.1" xmlns="http://www.w3.org/2000/svg" xmlns:xlink="http://www.w3.org/1999/xlink">
    <!-- Generator: Sketch 53.2 (72643) - https://sketchapp.com -->
    <title>ifo</title>
    <desc>Created with Sketch.</desc>
    <g id="ifo" stroke="none" stroke-width="1" fill="none" fill-rule="evenodd" fill-opacity="1" opacity="1">
        <g id="3.Icons/Outlined/refresh" fill="#000000">
            <g id="Icons/Tint-Color/Black" transform="translate(5.000000, 3.333333)">
                <path d="M14.2949127,5.35212901 C7.44308032,5.71834542 2,11.3901896 2,18.3333333 C2,25.5130351 7.82029825,31.3333333 15,31.3333333 C22.1797017,31.3333333 28,25.5130351 28,18.3333333 C28,14.8368036 26.6159245,11.5644815 24.1923882,9.14094518 L25.6066017,7.72673162 C28.3210678,10.4411977 30,14.1911977 30,18.3333333 C30,26.6176046 23.2842712,33.3333333 15,33.3333333 C6.71572875,33.3333333 0,26.6176046 0,18.3333333 C0,10.5159025 5.98015755,4.09521221 13.6153433,3.39639198 L11.6331649,1.41421362 L13.0473785,2.69118061e-13 L17.1721681,4.12478956 C17.497605,4.45022647 17.497605,4.97786395 17.1721681,5.30330086 L16.3472101,6.12825883 L13.0473785,9.42809042 L11.6331649,8.0138768 L14.2949127,5.35212901 Z" id="图标颜色"></path>
            </g>
        </g>
    </g>
</svg>