<?xml version="1.0" encoding="UTF-8"?>
<svg width="16px" height="16px" viewBox="0 0 16 16" version="1.1" xmlns="http://www.w3.org/2000/svg" xmlns:xlink="http://www.w3.org/1999/xlink">
    <!-- Generator: Sketch 54.1 (76490) - https://sketchapp.com -->
    <title>画板复制</title>
    <desc>Created with Sketch.</desc>
    <g id="画板复制" stroke="none" stroke-width="1" fill="none" fill-rule="evenodd">
        <path d="M8,15.5 C3.85786438,15.5 0.5,12.1421356 0.5,8 C0.5,3.85786438 3.85786438,0.5 8,0.5 C12.1421356,0.5 15.5,3.85786438 15.5,8 C15.5,12.1421356 12.1421356,15.5 8,15.5 Z M8,14.6 C11.6450793,14.6 14.6,11.6450793 14.6,8 C14.6,4.35492065 11.6450793,1.4 8,1.4 C4.35492065,1.4 1.4,4.35492065 1.4,8 C1.4,11.6450793 4.35492065,14.6 8,14.6 Z M7.12132047,9.91874456 L11.477565,5.5625 L12.1139612,6.19889613 L7.65165056,10.6612067 C7.35875734,10.9540999 6.8838836,10.9540999 6.59099038,10.6612067 L4.25,8.32021635 L4.88639613,7.68382022 L7.12132047,9.91874456 Z" id="Combined-Shape" fill="#00C777" fill-rule="nonzero"></path>
    </g>
</svg>