<?xml version="1.0" encoding="UTF-8"?>
<svg width="66px" height="66px" viewBox="0 0 66 66" version="1.1" xmlns="http://www.w3.org/2000/svg" xmlns:xlink="http://www.w3.org/1999/xlink">
    <!-- Generator: Sketch 55.2 (78181) - https://sketchapp.com -->
    <title>插件详情页</title>
    <desc>Created with Sketch.</desc>
    <g id="插件详情页" stroke="none" stroke-width="1" fill="none" fill-rule="evenodd">
        <rect fill="#07C160" x="0" y="0" width="66" height="66"></rect>
        <g id="3.Icons/Filled/pay_logo" transform="translate(13.000000, 13.000000)" fill="#FFFFFF">
            <path d="M15.4560145,23.9769391 C15.3055025,24.053704 15.136061,24.0989152 14.9564623,24.0989152 C14.5395533,24.0989152 14.177124,23.864853 13.9869064,23.5191755 L13.9144205,23.3571686 L10.8797104,16.5651246 C10.8469302,16.4911854 10.8266157,16.4073562 10.8266157,16.3258819 C10.8266157,16.0131709 11.0754684,15.7597997 11.3820327,15.7597997 C11.5076133,15.7597997 11.6216516,15.8017143 11.7149136,15.8723568 L15.2953452,18.472473 C15.5562019,18.6467245 15.8696917,18.7493917 16.2058044,18.7493917 C16.4057176,18.7493917 16.5973203,18.7117157 16.7750723,18.6453117 L33.6134888,11.0013187 C30.5953997,7.37217626 25.6243479,5 19.9995383,5 C10.7942972,5 3.33333333,11.3432285 3.33333333,19.1680664 C3.33333333,23.4367592 5.5776245,27.280184 9.09157225,29.8774745 C9.37366686,30.0823378 9.55788249,30.4190672 9.55788249,30.8005369 C9.55788249,30.9267515 9.53248936,31.0407215 9.49924744,31.1612848 C9.2189996,32.2293999 8.76977202,33.9389492 8.74899582,34.0194816 C8.71390713,34.1527606 8.65896562,34.2931037 8.65896562,34.4339178 C8.65896562,34.7461578 8.90735662,35 9.21530606,35 C9.33534632,35 9.43368699,34.9543178 9.53572121,34.8949781 L13.1844834,32.7455613 C13.4587292,32.5840254 13.7491343,32.4841839 14.0695495,32.4841839 C14.2399143,32.4841839 14.4047388,32.5110281 14.5594061,32.559536 C16.2616693,33.0587432 18.0982853,33.3361329 19.9995383,33.3361329 C29.2043178,33.3361329 36.6666667,26.9929044 36.6666667,19.1680664 C36.6666667,16.7987159 35.9782819,14.5664118 34.7677221,12.6034913 L15.5779015,23.9048838 L15.4560145,23.9769391 Z" id="Symbol"></path>
        </g>
    </g>
</svg>