<?xml version="1.0" encoding="UTF-8"?>
<svg width="29px" height="29px" viewBox="0 0 29 29" version="1.1" xmlns="http://www.w3.org/2000/svg" xmlns:xlink="http://www.w3.org/1999/xlink">
    <!-- Generator: Sketch 55.2 (78181) - https://sketchapp.com -->
    <title>插件列表</title>
    <desc>Created with Sketch.</desc>
    <g id="插件列表" stroke="none" stroke-width="1" fill="none" fill-rule="evenodd">
        <rect fill="#07C160" x="0" y="0" width="29" height="29"></rect>
        <g id="3.Icons/Filled/pay_logo" transform="translate(3.000000, 3.000000)" fill="#FFFFFF">
            <path d="M9.29438157,14.4183885 C9.20387207,14.4645506 9.10197948,14.4917381 8.99397888,14.4917381 C8.74327312,14.4917381 8.52532847,14.3509862 8.41094223,14.1431151 L8.3673533,14.0456932 L6.54244859,9.96133827 C6.52273639,9.91687538 6.51052039,9.86646523 6.51052039,9.8174711 C6.51052039,9.62942425 6.66016646,9.47706098 6.8445171,9.47706098 C6.92003423,9.47706098 6.98861044,9.50226606 7.04469301,9.54474652 L9.19776407,11.1083108 C9.35462869,11.2130959 9.54314387,11.2748342 9.74526325,11.2748342 C9.86547985,11.2748342 9.980699,11.2521779 10.0875891,11.2122463 L20.2132698,6.61557697 C18.39836,4.43321396 15.4090478,3.00672 12.0266024,3.00672 C6.49108583,3.00672 2.00448,6.82118241 2.00448,11.5266017 C2.00448,14.0935545 3.35407102,16.404775 5.46716242,17.96664 C5.63679832,18.0898333 5.74757529,18.2923235 5.74757529,18.5217181 C5.74757529,18.5976165 5.73230528,18.6661516 5.71231545,18.7386516 C5.5437901,19.3809562 5.27364978,20.4089834 5.26115614,20.4574112 C5.24005577,20.5375576 5.20701702,20.6219522 5.20701702,20.7066299 C5.20701702,20.8943935 5.35638546,21.04704 5.54156901,21.04704 C5.6137545,21.04704 5.67289107,21.0195693 5.73424874,20.9838857 L7.92840999,19.6913468 C8.09332607,19.5942082 8.26795943,19.5341691 8.46063916,19.5341691 C8.56308703,19.5341691 8.66220326,19.5503117 8.75521149,19.5794816 C9.77885726,19.8796769 10.8832953,20.0464835 12.0266024,20.0464835 C17.5618413,20.0464835 22.04928,16.2320211 22.04928,11.5266017 C22.04928,10.101807 21.635324,8.75942436 20.9073611,7.57903388 L9.36767761,14.3750584 L9.29438157,14.4183885 Z" id="Symbol"></path>
        </g>
    </g>
</svg>