<?xml version="1.0" encoding="UTF-8"?>
<svg width="16px" height="16px" viewBox="0 0 16 16" version="1.1" xmlns="http://www.w3.org/2000/svg" xmlns:xlink="http://www.w3.org/1999/xlink">
    <!-- Generator: Sketch 55.2 (78181) - https://sketchapp.com -->
    <title>safe-line</title>
    <desc>Created with Sketch.</desc>
    <defs>
        
    </defs>
    <g id="safe-line" stroke="none" stroke-width="1" fill="none" fill-rule="evenodd">
        <g id="3.Icons/Outlined/pay_security">
            <g id="Combined-Shape" fill-opacity="0.3" fill="#000000" fill-rule="evenodd">
                <path d="M13.3333333,6.24305645 C13.3333333,6.24305645 13.3333333,6.24305645 13.3333333,6.24305645 L13.3333333,7.50252583 C13.3333333,10.7334291 11.1344365,13.5497242 8,14.3333333 C4.86556347,13.5497242 2.66666667,10.7334291 2.66666667,7.50252583 L2.66666667,3.66666667 L8,1.66666667 L13.3333333,3.66666667 L13.3333333,6.24305645 Z M12.5333333,6.17141161 L12.5333333,4.29128779 L8,2.49128779 L3.46666667,4.29128779 L3.46666667,7.50252583 C3.46666667,10.2991935 5.32540627,12.7453906 8,13.5054142 C10.6745937,12.7453906 12.5333333,10.2991935 12.5333333,7.50252583 L12.5333333,6.88461825 L6.88594097,9.94166237 L6.84611117,9.96332659 C6.79692741,9.98640677 6.74155796,10 6.68286936,10 C6.54663336,10 6.42820007,9.9296267 6.36604145,9.82569509 L6.34235479,9.77698601 L5.35068343,7.73488581 C5.33997163,7.71265521 5.33333333,7.68745109 5.33333333,7.66295495 C5.33333333,7.56893508 5.4146525,7.49275633 5.51483047,7.49275633 C5.55586722,7.49275633 5.59313222,7.50535839 5.62360805,7.52659782 L6.79360826,8.30835036 C6.87885006,8.36074095 6.98129108,8.39160892 7.09112476,8.39160892 C7.15645166,8.39160892 7.21906289,8.38028123 7.277148,8.36031616 C7.277148,8.36031616 11.0680071,6.78077283 12.5333333,6.17141161 Z" id="path-1"></path>
            </g>
        </g>
    </g>
</svg>