<?xml version="1.0" encoding="UTF-8"?>
<svg width="24px" height="24px" viewBox="0 0 24 24" version="1.1" xmlns="http://www.w3.org/2000/svg" xmlns:xlink="http://www.w3.org/1999/xlink">
    <!-- Generator: Sketch 55.2 (78181) - https://sketchapp.com -->
    <title>loc</title>
    <desc>Created with Sketch.</desc>
    <g id="loc" stroke="none" stroke-width="1" fill="none" fill-rule="evenodd" fill-opacity="0.3">
        <g id="3.Icons/Outlined/location" fill="#000000">
            <g id="icon22" transform="translate(4.000000, 2.000000)">
                <path d="M8.06519014,19.2431663 C8.06300986,19.2412009 8.06085569,19.2393247 8.05872818,19.2375353 L8.06519014,19.2431663 Z M8.24683684,18.9686065 C8.48293324,18.7557774 8.74732343,18.5078114 9.03284437,18.2278923 C9.85063366,17.4261479 10.6688921,16.5335242 11.4301661,15.5768797 C13.4693431,13.0143765 14.7113924,10.487102 14.7954866,8.23968166 C14.7984932,8.15933104 14.8,8.07943664 14.8,8 C14.8,4.2444637 11.7555363,1.2 8,1.2 C4.2444637,1.2 1.2,4.2444637 1.2,8 C1.2,8.07943664 1.20150681,8.15933104 1.20451338,8.23968166 C1.28860758,10.487102 2.5306569,13.0143765 4.56983386,15.5768797 C5.33110795,16.5335242 6.14936634,17.4261479 6.96715563,18.2278923 C7.25267657,18.5078114 7.51706676,18.7557774 7.75316316,18.9686065 C7.86349262,19.068063 7.94697177,19.1413912 8,19.1870148 C8.05302823,19.1413912 8.13650738,19.068063 8.24683684,18.9686065 Z M7.26171875,20.1344765 C7.26171875,20.1344765 0,14.018278 0,8 C0,3.581722 3.581722,0 8,0 C12.418278,0 16,3.581722 16,8 C16,14.018278 8.73828125,20.1344765 8.73828125,20.1344765 C8.33356488,20.5060199 7.66946023,20.502035 7.26171875,20.1344765 Z M8,10.8 C9.5463973,10.8 10.8,9.5463973 10.8,8 C10.8,6.4536027 9.5463973,5.2 8,5.2 C6.4536027,5.2 5.2,6.4536027 5.2,8 C5.2,9.5463973 6.4536027,10.8 8,10.8 Z M8,12 C5.790861,12 4,10.209139 4,8 C4,5.790861 5.790861,4 8,4 C10.209139,4 12,5.790861 12,8 C12,10.209139 10.209139,12 8,12 Z" id="图标颜色"></path>
            </g>
        </g>
    </g>
</svg>