<?xml version="1.0" encoding="UTF-8"?>
<svg width="64px" height="64px" viewBox="0 0 64 64" version="1.1" xmlns="http://www.w3.org/2000/svg" xmlns:xlink="http://www.w3.org/1999/xlink">
    <!-- Generator: Sketch 55.2 (78181) - https://sketchapp.com -->
    <title>safe</title>
    <desc>Created with Sketch.</desc>
    <g id="safe" stroke="none" stroke-width="1" fill="none" fill-rule="evenodd">
        <g id="3.Icons/Filled/pay_security">
            <g id="icon22" fill="#07C160" fill-rule="evenodd">
                <path d="M53.3333333,24.1321594 C45.6861466,27.3140341 30.4044685,33.6814754 30.4044685,33.6814754 C30.1334046,33.7746457 29.8412188,33.8275083 29.53636,33.8275083 C29.0238028,33.8275083 28.5457447,33.6834578 28.1479497,33.4389684 L22.6879487,29.7907898 C22.5457281,29.6916725 22.3718248,29.6328629 22.1803199,29.6328629 C21.7128228,29.6328629 21.3333333,29.9883637 21.3333333,30.4271231 C21.3333333,30.5414384 21.3643121,30.6590576 21.4143005,30.7628004 L26.0421002,40.2926014 L26.1526379,40.5199104 C26.4427114,41.0049246 26.9954001,41.3333333 27.6311681,41.3333333 C27.9050483,41.3333333 28.163439,41.2698982 28.3929633,41.1621907 L28.5788356,41.0610911 L53.3333333,27.6609965 L53.3333333,30.0101033 C53.3333333,42.9337162 44.5377461,54.1988968 32,57.3333333 C19.4622539,54.1988968 10.6666667,42.9337162 10.6666667,30.0101033 L10.6666667,14.6666667 L32,6.66666667 L53.3333333,14.6666667 L53.3333333,24.1321594 Z" id="path-1"></path>
            </g>
        </g>
    </g>
</svg>