<?xml version="1.0" encoding="UTF-8"?>
<svg width="26px" height="25px" viewBox="0 0 26 25" version="1.1" xmlns="http://www.w3.org/2000/svg" xmlns:xlink="http://www.w3.org/1999/xlink">
    <!-- Generator: Sketch 56.2 (81672) - https://sketch.com -->
    <title>Icon / delete miniprogram</title>
    <desc>Created with Sketch.</desc>
    <g id="视觉稿---小程序：小程序菜单优化1.3" stroke="none" stroke-width="1" fill="none" fill-rule="evenodd">
        <g id="Icon-/-delete-miniprogram">
            <path d="M5.90674449,7.80491096 L21.1492654,23.0626165 C21.0315207,23.5697769 20.6207388,23.9821738 20.0754024,24.0757063 C19.7863922,24.1252754 19.4891015,24.0781892 19.2295542,23.9417371 L13,20.6666667 L6.77044584,23.9417371 C6.11865306,24.2844048 5.31248352,24.0338095 4.96981577,23.3820167 C4.83336368,23.1224694 4.78627745,22.8251786 4.83584657,22.5361685 L6.02558555,15.599458 L0.985770362,10.6868523 C0.458458925,10.1728507 0.447669183,9.32869967 0.961670799,8.80138823 C1.16634894,8.59141005 1.43453882,8.45476048 1.72472153,8.41259446 L5.90674449,7.80491096 Z M7.8816723,7.51793715 L8.68957482,7.40054204 L11.8043519,1.08931433 C12.1302483,0.428976121 12.9297494,0.157857456 13.5900876,0.483753847 C13.8530378,0.613527499 14.0658744,0.826364194 14.1956481,1.08931433 L17.3104252,7.40054204 L24.2752785,8.41259446 C25.004005,8.51848462 25.5089136,9.19507509 25.4030234,9.92380157 C25.3608574,10.2139843 25.2242078,10.4821742 25.0142296,10.6868523 L19.9744145,15.599458 L20.8074839,20.4566255 L7.8816723,7.51793715 Z" id="形状结合" fill="#FFC300"></path>
            <path d="M3,1.5 L25.2924921,23.8147001" id="Path-6" stroke="#FFC300" stroke-width="1.6"></path>
            <polygon id="路径" fill="#FFC300" fill-rule="nonzero" points="2.43403302 2.06540373 24.7265252 24.3801038 25.8584591 23.2492964 3.56596698 0.934596275"></polygon>
        </g>
    </g>
</svg>