<?xml version="1.0" encoding="UTF-8"?>
<svg width="26px" height="25px" viewBox="0 0 26 25" version="1.1" xmlns="http://www.w3.org/2000/svg" xmlns:xlink="http://www.w3.org/1999/xlink">
    <!-- Generator: Sketch 56.2 (81672) - https://sketch.com -->
    <title>3.Icons/Filled/star</title>
    <desc>Created with Sketch.</desc>
    <g id="视觉稿---小程序：小程序菜单优化1.3" stroke="none" stroke-width="1" fill="none" fill-rule="evenodd">
        <g id="开发版-备份" transform="translate(-163.000000, -495.000000)" fill="#FFC300">
            <g id="3.Icons/Filled/star" transform="translate(160.000000, 491.500000)">
                <g id="Group-25">
                    <path d="M16,24.6666667 L9.77044584,27.9417371 C9.11865306,28.2844048 8.31248352,28.0338095 7.96981577,27.3820167 C7.83336368,27.1224694 7.78627745,26.8251786 7.83584657,26.5361685 L9.02558555,19.599458 L3.98577036,14.6868523 C3.45845893,14.1728507 3.44766918,13.3286997 3.9616708,12.8013882 C4.16634894,12.59141 4.43453882,12.4547605 4.72472153,12.4125945 L11.6895748,11.400542 L14.8043519,5.08931433 C15.1302483,4.42897612 15.9297494,4.15785746 16.5900876,4.48375385 C16.8530378,4.6135275 17.0658744,4.82636419 17.1956481,5.08931433 L20.3104252,11.400542 L27.2752785,12.4125945 C28.004005,12.5184846 28.5089136,13.1950751 28.4030234,13.9238016 C28.3608574,14.2139843 28.2242078,14.4821742 28.0142296,14.6868523 L22.9744145,19.599458 L24.1641534,26.5361685 C24.2886348,27.2619504 23.8011843,27.951225 23.0754024,28.0757063 C22.7863922,28.1252754 22.4891015,28.0781892 22.2295542,27.9417371 L16,24.6666667 Z" id="图标颜色"></path>
                </g>
            </g>
        </g>
    </g>
</svg>