<?xml version="1.0" encoding="UTF-8"?>
<svg width="44px" height="44px" viewBox="0 0 44 44" version="1.1" xmlns="http://www.w3.org/2000/svg" xmlns:xlink="http://www.w3.org/1999/xlink">
    <!-- Generator: Sketch 57.1 (83088) - https://sketch.com -->
    <title>pause_press</title>
    <desc>Created with Sketch.</desc>
    <g id="pause_press" stroke="none" stroke-width="1" fill="none" fill-rule="evenodd" fill-opacity="0.9">
        <g id="编组-2">
            <circle id="椭圆形" fill="#EDEDED" cx="22" cy="22" r="22"></circle>
            <g id="3.Icons/Filled/pause" transform="translate(8.800000, 8.800000)" fill="#000000">
                <path d="M7.58333333,5.41666667 L9.75,5.41666667 C10.3483085,5.41666667 10.8333333,5.86935653 10.8333333,6.42777778 L10.8333333,19.5722222 C10.8333333,20.1306435 10.3483085,20.5833333 9.75,20.5833333 L7.58333333,20.5833333 C6.98502485,20.5833333 6.5,20.1306435 6.5,19.5722222 L6.5,6.42777778 C6.5,5.86935653 6.98502485,5.41666667 7.58333333,5.41666667 Z" id="路径"></path>
                <path d="M16.25,5.41666667 L18.4166667,5.41666667 C19.0149751,5.41666667 19.5,5.86935653 19.5,6.42777778 L19.5,19.5722222 C19.5,20.1306435 19.0149751,20.5833333 18.4166667,20.5833333 L16.25,20.5833333 C15.6516915,20.5833333 15.1666667,20.1306435 15.1666667,19.5722222 L15.1666667,6.42777778 C15.1666667,5.86935653 15.6516915,5.41666667 16.25,5.41666667 Z" id="路径"></path>
            </g>
            <circle id="椭圆形" fill="#000000" opacity="0.100000001" cx="22" cy="22" r="22"></circle>
        </g>
    </g>
</svg>