<?xml version="1.0" encoding="UTF-8"?>
<svg width="44px" height="44px" viewBox="0 0 44 44" version="1.1" xmlns="http://www.w3.org/2000/svg" xmlns:xlink="http://www.w3.org/1999/xlink">
    <!-- Generator: Sketch 57.1 (83088) - https://sketch.com -->
    <title>play</title>
    <desc>Created with Sketch.</desc>
    <g id="play" stroke="none" stroke-width="1" fill="none" fill-rule="evenodd" fill-opacity="0.9">
        <g id="编组-8">
            <path d="M22,44 C34.1502645,44 44,34.1502645 44,22 C44,9.8497355 34.1502645,0 22,0 C9.8497355,0 0,9.8497355 0,22 C0,34.1502645 9.8497355,44 22,44 Z" id="Mask" fill="#EDEDED"></path>
            <path d="M19.2518151,13.9196546 C19.0802296,13.8087863 18.8819603,13.75 18.6796185,13.75 C18.0833617,13.75 17.6,14.2497112 17.6,14.8661361 L17.6,29.1337145 C17.6,29.3429004 17.6568629,29.5478761 17.7641038,29.7252654 C18.0801193,30.2479928 18.7461904,30.4069006 19.2518151,30.080196 L30.2924337,22.9464068 C30.4314552,22.8565794 30.5488632,22.7352001 30.6357516,22.5914763 C30.9517671,22.0687489 30.7980584,21.3801483 30.2924337,21.0534438 L19.2518151,13.9196546 Z" id="Rectangle-39" fill="#000000"></path>
        </g>
    </g>
</svg>